<?xml version="1.0" encoding="UTF-8"?>
<svg id="Capa_1" xmlns="http://www.w3.org/2000/svg" version="1.1" viewBox="0 0 1200 1200">
  <!-- Generator: Adobe Illustrator 29.8.2, SVG Export Plug-In . SVG Version: 2.1.1 Build 3)  -->
  <defs>
    <style>
      .st0 {
        fill: #fff;
      }
    </style>
  </defs>
  <circle class="st0" cx="598.6" cy="597.96" r="102.78" transform="translate(-247.5 598.42) rotate(-45)"/>
  <g>
    <path d="M612.21,560.59c3.29-4.06,5.51-9.71,4.91-15.33-4.74.19-10.49,3.21-13.89,7.26-3.05,3.61-5.71,9.34-5,14.86,5.3.42,10.7-2.74,13.99-6.79Z"/>
    <path d="M624.09,596.27c-.04-3.85.92-7.05,2.27-9.66,2.91-5.64,7.61-8.43,7.92-8.63-5.55-8.25-14.18-9.38-17.26-9.51-7.35-.76-14.33,4.4-18.05,4.4s-9.48-4.3-15.57-4.18c-8.01.12-15.39,4.74-19.51,12.04-1.28,2.26-2.22,4.7-2.86,7.24-3.5,13.93,1.98,31.06,8.84,41.14,3.96,5.83,8.68,12.39,14.89,12.15,5.98-.24,8.23-3.93,15.46-3.93s9.26,3.93,15.57,3.81c6.42-.12,10.5-5.94,14.43-11.79,4.55-6.76,6.42-13.32,6.54-13.65-.15-.07-12.53-4.89-12.66-19.42Z"/>
  </g>
</svg>