<?xml version="1.0" encoding="UTF-8"?>
<svg xmlns="http://www.w3.org/2000/svg" xmlns:xlink="http://www.w3.org/1999/xlink" viewBox="0 0 662.04 274.02">
  <defs>
    <style>
      .cls-1 {
        fill: none;
      }

      .cls-2 {
        fill: #ccbcd6;
      }

      .cls-3 {
        fill: #ffd003;
      }

      .cls-4 {
        fill: #56387a;
      }

      .cls-5 {
        fill: #009b3e;
      }

      .cls-6 {
        opacity: .25;
      }

      .cls-6, .cls-7 {
        mix-blend-mode: multiply;
      }

      .cls-7 {
        opacity: .5;
      }

      .cls-8 {
        isolation: isolate;
      }

      .cls-9 {
        clip-path: url(#clippath-1);
      }

      .cls-10 {
        fill: #fff;
      }

      .cls-11 {
        fill: #626161;
      }

      .cls-12 {
        fill: #f18600;
      }

      .cls-13 {
        fill: #5ca1d8;
      }

      .cls-14 {
        fill: #1a59a6;
      }

      .cls-15 {
        clip-path: url(#clippath);
      }
    </style>
    <clipPath id="clippath">
      <circle class="cls-1" cx="137.01" cy="137.01" r="119.83"/>
    </clipPath>
    <clipPath id="clippath-1">
      <circle class="cls-1" cx="525.03" cy="137.01" r="119.83"/>
    </clipPath>
  </defs>
  <g class="cls-8">
    <g id="Capa_1" data-name="Capa 1">
      <g>
        <g>
          <g>
            <circle class="cls-2" cx="137.01" cy="137.01" r="137.01"/>
            <circle class="cls-10" cx="137.01" cy="137.01" r="127.64" transform="translate(-56.75 137.01) rotate(-45)"/>
          </g>
          <circle class="cls-11" cx="137.01" cy="137.01" r="119.83"/>
          <g class="cls-15">
            <g>
              <g>
                <rect class="cls-13" x="-66.53" y="15.74" width="407.07" height="80.84"/>
                <rect class="cls-10" x="-66.53" y="96.59" width="407.07" height="80.84"/>
                <rect class="cls-13" x="-66.53" y="177.43" width="407.07" height="80.84"/>
              </g>
              <g>
                <circle class="cls-12" cx="136.5" cy="137.01" r="17.72"/>
                <g>
                  <g>
                    <g>
                      <g>
                        <polygon class="cls-12" points="134.66 126.05 136.29 99.56 136.71 99.56 138.34 126.05 134.66 126.05"/>
                        <polygon class="cls-12" points="138.34 147.94 136.71 174.42 136.29 174.42 134.66 147.94 138.34 147.94"/>
                      </g>
                      <g>
                        <polygon class="cls-12" points="147.44 135.16 173.93 136.78 173.93 137.2 147.44 138.83 147.44 135.16"/>
                        <polygon class="cls-12" points="125.55 138.83 99.07 137.2 99.07 136.78 125.55 135.16 125.55 138.83"/>
                      </g>
                    </g>
                    <g>
                      <g>
                        <polygon class="cls-12" points="142.94 127.96 162.82 110.38 163.11 110.67 145.54 130.55 142.94 127.96"/>
                        <polygon class="cls-12" points="130.06 146.03 110.18 163.61 109.88 163.31 127.46 143.43 130.06 146.03"/>
                      </g>
                      <g>
                        <polygon class="cls-12" points="145.54 143.43 163.11 163.31 162.82 163.61 142.94 146.03 145.54 143.43"/>
                        <polygon class="cls-12" points="127.46 130.55 109.88 110.67 110.18 110.38 130.06 127.96 127.46 130.55"/>
                      </g>
                    </g>
                  </g>
                  <g>
                    <g>
                      <g>
                        <polygon class="cls-12" points="139.07 126.2 150.89 102.44 151.27 102.6 142.45 127.63 139.07 126.2"/>
                        <polygon class="cls-12" points="133.93 147.79 122.11 171.55 121.73 171.39 130.54 146.36 133.93 147.79"/>
                      </g>
                      <g>
                        <polygon class="cls-12" points="147.3 139.57 171.05 151.38 170.89 151.77 145.86 142.95 147.3 139.57"/>
                        <polygon class="cls-12" points="125.7 134.42 101.94 122.61 102.11 122.22 127.13 131.04 125.7 134.42"/>
                      </g>
                    </g>
                    <g>
                      <g>
                        <polygon class="cls-12" points="145.95 131.18 171.11 122.73 171.26 123.12 147.33 134.58 145.95 131.18"/>
                        <polygon class="cls-12" points="127.05 142.81 101.89 151.25 101.73 150.87 125.67 139.41 127.05 142.81"/>
                      </g>
                      <g>
                        <polygon class="cls-12" points="142.31 146.45 150.76 171.6 150.37 171.76 138.91 147.83 142.31 146.45"/>
                        <polygon class="cls-12" points="130.68 127.54 122.24 102.39 122.63 102.23 134.09 126.16 130.68 127.54"/>
                      </g>
                    </g>
                  </g>
                </g>
                <g>
                  <g>
                    <g>
                      <g>
                        <polygon class="cls-12" points="136.85 125.9 143.66 100.25 144.07 100.34 140.45 126.62 136.85 125.9"/>
                        <polygon class="cls-12" points="136.14 148.09 129.34 173.73 128.93 173.65 132.54 147.36 136.14 148.09"/>
                      </g>
                      <g>
                        <polygon class="cls-12" points="147.59 137.35 173.24 144.16 173.16 144.57 146.87 140.95 147.59 137.35"/>
                        <polygon class="cls-12" points="125.41 136.64 99.76 129.83 99.84 129.42 126.13 133.04 125.41 136.64"/>
                      </g>
                    </g>
                    <g>
                      <g>
                        <polygon class="cls-12" points="144.59 129.4 167.54 116.08 167.78 116.43 146.63 132.46 144.59 129.4"/>
                        <polygon class="cls-12" points="128.4 144.59 105.45 157.91 105.22 157.56 126.37 141.53 128.4 144.59"/>
                      </g>
                      <g>
                        <polygon class="cls-12" points="144.09 145.09 157.41 168.04 157.06 168.27 141.03 147.12 144.09 145.09"/>
                        <polygon class="cls-12" points="128.91 128.9 115.59 105.95 115.93 105.72 131.96 126.86 128.91 128.9"/>
                      </g>
                    </g>
                  </g>
                  <g>
                    <g>
                      <g>
                        <polygon class="cls-12" points="141.15 126.92 157.41 105.95 157.75 106.18 144.18 128.98 141.15 126.92"/>
                        <polygon class="cls-12" points="131.85 147.07 115.59 168.04 115.24 167.8 128.82 145 131.85 147.07"/>
                      </g>
                      <g>
                        <polygon class="cls-12" points="146.58 141.64 167.55 157.9 167.31 158.25 144.51 144.68 146.58 141.64"/>
                        <polygon class="cls-12" points="126.42 132.35 105.45 116.08 105.69 115.74 128.49 129.31 126.42 132.35"/>
                      </g>
                    </g>
                    <g>
                      <g>
                        <polygon class="cls-12" points="146.91 133.15 173.24 129.82 173.32 130.24 147.59 136.76 146.91 133.15"/>
                        <polygon class="cls-12" points="126.09 140.83 99.76 144.16 99.68 143.75 125.4 137.23 126.09 140.83"/>
                      </g>
                      <g>
                        <polygon class="cls-12" points="140.34 147.41 143.67 173.73 143.26 173.81 136.73 148.09 140.34 147.41"/>
                        <polygon class="cls-12" points="132.66 126.58 129.33 100.26 129.74 100.18 136.27 125.9 132.66 126.58"/>
                      </g>
                    </g>
                  </g>
                </g>
                <path class="cls-3" d="M150.22,137.01c0,7.58-6.14,13.72-13.72,13.72s-13.72-6.14-13.72-13.72,6.14-13.72,13.72-13.72,13.72,6.14,13.72,13.72Z"/>
              </g>
            </g>
          </g>
        </g>
        <g class="cls-6">
          <g class="cls-7">
            <path class="cls-4" d="M137.01,17.35c-66.18,0-119.83,53.65-119.83,119.83s53.65,119.83,119.83,119.83,119.83-53.65,119.83-119.83S203.19,17.35,137.01,17.35ZM137.01,249.15c-61.84,0-111.97-50.13-111.97-111.97S75.17,25.22,137.01,25.22s111.97,50.13,111.97,111.97-50.13,111.97-111.97,111.97Z"/>
          </g>
        </g>
      </g>
      <g>
        <g>
          <g>
            <circle class="cls-2" cx="525.03" cy="137.01" r="137.01"/>
            <circle class="cls-10" cx="525.03" cy="137.01" r="127.64" transform="translate(56.9 411.38) rotate(-45)"/>
          </g>
          <circle class="cls-11" cx="525.03" cy="137.01" r="119.83"/>
          <g class="cls-9">
            <g>
              <rect class="cls-5" x="322.21" y="17.04" width="402.59" height="239.87"/>
              <g>
                <polygon class="cls-3" points="522.91 61.36 418.02 136.99 522.91 212.61 627.8 136.99 522.91 61.36"/>
                <g>
                  <circle class="cls-14" cx="522.44" cy="137.26" r="47.7" transform="translate(303.76 631.18) rotate(-80.84)"/>
                  <path class="cls-10" d="M569.34,128.8c-19.31-15.37-59.1-26.33-84.35-21.02-3.5,4.44-6.24,9.49-7.99,15,.65-.52,1.31-.99,1.96-1.37,18.77-10.95,71.38,1,87.96,20,1.12,1.29,1.9,2.48,2.53,3.63.42-2.54.69-5.12.69-7.78,0-2.89-.3-5.71-.79-8.46Z"/>
                </g>
              </g>
            </g>
          </g>
        </g>
        <g class="cls-6">
          <g class="cls-7">
            <path class="cls-4" d="M524.85,17.26c-66.18,0-119.83,53.65-119.83,119.83s53.65,119.83,119.83,119.83,119.83-53.65,119.83-119.83-53.65-119.83-119.83-119.83ZM524.85,249.06c-61.84,0-111.97-50.13-111.97-111.97s50.13-111.97,111.97-111.97,111.97,50.13,111.97,111.97-50.13,111.97-111.97,111.97Z"/>
          </g>
        </g>
      </g>
    </g>
  </g>
</svg>