<svg width="29" height="54" viewBox="0 0 29 54" fill="none" xmlns="http://www.w3.org/2000/svg">
<path d="M20.6483 28.1897C20.4953 27.8785 20.2204 27.7903 19.8988 27.7916C19.4204 27.7929 18.9419 27.7916 18.4634 27.7916H16.7557C16.7881 27.6308 16.8037 27.5258 16.8309 27.4234C17.3833 25.3539 17.9383 23.2857 18.4907 21.2163C18.7578 20.2139 19.034 19.2142 19.279 18.208C19.4217 17.6232 18.9497 17.1525 18.4206 17.3444C18.23 17.4131 18.0589 17.5869 17.924 17.749C14.8094 21.521 11.7013 25.2981 8.59195 29.0753C8.32743 29.3969 7.96436 29.6964 8.20295 30.1879C8.43765 30.6715 8.89666 30.5937 9.31548 30.595C10.2283 30.5989 11.1399 30.5963 12.0865 30.5963C12.0514 30.7636 12.0333 30.8816 12.0022 30.997C11.4835 32.9484 10.9622 34.8986 10.4436 36.8501C10.1492 37.9574 9.85749 39.0661 9.56574 40.1734C9.47497 40.5184 9.56704 40.8101 9.88083 40.9813C10.205 41.1589 10.5149 41.0915 10.769 40.8192C10.8819 40.6999 10.983 40.5702 11.0867 40.4431C12.3121 38.9572 13.5374 37.4699 14.7615 35.9826C16.665 33.6733 18.5659 31.3626 20.4707 29.0533C20.6833 28.7952 20.8104 28.5216 20.6483 28.191V28.1897ZM11.7999 37.3739C11.8258 37.1885 11.8271 37.1055 11.8479 37.0264C12.4391 34.7988 13.033 32.5711 13.6243 30.3422C13.8382 29.5369 13.5841 29.1985 12.7594 29.1946C11.9827 29.1907 11.206 29.1946 10.3048 29.1946C12.5727 26.4418 14.777 23.7642 16.9813 21.0866L17.0514 21.1138C17.0151 21.2746 16.9852 21.4367 16.9424 21.5949C16.3706 23.7447 15.7962 25.892 15.2244 28.0419C15.013 28.8367 15.2788 29.1894 16.0944 29.1946C16.8698 29.1985 17.6439 29.1946 18.5386 29.1946C16.2604 31.9604 14.0652 34.625 11.7999 37.3752V37.3739Z" fill="#6B9907" stroke="#6B9907"/>
<path d="M25.0647 3.52979H20.8752V2.29666C20.8752 1.5809 20.2956 1 19.5786 1H9.20008C8.48433 1 7.90342 1.5809 7.90342 2.29666V3.52979H3.71391C2.21497 3.52979 1 4.74476 1 6.24499V50.2861C1 51.785 2.21497 53 3.71391 53H25.0647C26.5637 53 27.7786 51.785 27.7786 50.2861V6.24499C27.7786 4.74476 26.5637 3.52979 25.0647 3.52979ZM9.32975 2.42633H19.4489V3.52979H9.32975V2.42633ZM26.3523 50.2861C26.3523 50.9954 25.7753 51.5737 25.0647 51.5737H3.71391C3.00464 51.5737 2.42633 50.9954 2.42633 50.2861V6.24499C2.42633 5.53442 3.00464 4.95611 3.71391 4.95611H25.0647C25.7753 4.95611 26.3523 5.53442 26.3523 6.24499V50.2861Z" fill="#6B9907" stroke="#6B9907"/>
</svg>
