<svg width="28" height="28" viewBox="0 0 28 28" fill="none" xmlns="http://www.w3.org/2000/svg">
<path d="M24.5 6.99996H20.8017L18.6667 4.66663H11.6667V6.99996H17.64L19.775 9.33329H24.5V23.3333H5.83333V12.8333H3.5V23.3333C3.5 24.6166 4.55 25.6666 5.83333 25.6666H24.5C25.7833 25.6666 26.8333 24.6166 26.8333 23.3333V9.33329C26.8333 8.04996 25.7833 6.99996 24.5 6.99996ZM9.33333 16.3333C9.33333 19.5533 11.9467 22.1666 15.1667 22.1666C18.3867 22.1666 21 19.5533 21 16.3333C21 13.1133 18.3867 10.5 15.1667 10.5C11.9467 10.5 9.33333 13.1133 9.33333 16.3333ZM15.1667 12.8333C17.0917 12.8333 18.6667 14.4083 18.6667 16.3333C18.6667 18.2583 17.0917 19.8333 15.1667 19.8333C13.2417 19.8333 11.6667 18.2583 11.6667 16.3333C11.6667 14.4083 13.2417 12.8333 15.1667 12.8333ZM5.83333 6.99996H9.33333V4.66663H5.83333V1.16663H3.5V4.66663H0V6.99996H3.5V10.5H5.83333V6.99996Z" fill="#6B9907"/>
</svg>
