<svg width="27" height="25" viewBox="0 0 27 25" fill="none" xmlns="http://www.w3.org/2000/svg">
<path d="M24.5 5.99996H20.8017L18.6667 3.66663H11.6667V5.99996H17.64L19.775 8.33329H24.5V22.3333H5.83333V11.8333H3.5V22.3333C3.5 23.6166 4.55 24.6666 5.83333 24.6666H24.5C25.7833 24.6666 26.8333 23.6166 26.8333 22.3333V8.33329C26.8333 7.04996 25.7833 5.99996 24.5 5.99996ZM9.33333 15.3333C9.33333 18.5533 11.9467 21.1666 15.1667 21.1666C18.3867 21.1666 21 18.5533 21 15.3333C21 12.1133 18.3867 9.49996 15.1667 9.49996C11.9467 9.49996 9.33333 12.1133 9.33333 15.3333ZM15.1667 11.8333C17.0917 11.8333 18.6667 13.4083 18.6667 15.3333C18.6667 17.2583 17.0917 18.8333 15.1667 18.8333C13.2417 18.8333 11.6667 17.2583 11.6667 15.3333C11.6667 13.4083 13.2417 11.8333 15.1667 11.8333ZM5.83333 5.99996H9.33333V3.66663H5.83333V0.166626H3.5V3.66663H0V5.99996H3.5V9.49996H5.83333V5.99996Z" fill="#124DE4"/>
</svg>
