<svg width="55" height="24" viewBox="0 0 55 24" fill="none" xmlns="http://www.w3.org/2000/svg">
<path d="M6.732 8.76285C6.732 8.7874 6.7276 8.81134 6.71815 8.83211L6.03435 10.291L6.03183 10.2936L5.99152 10.3804L4.9167 12.6737C4.872 12.7675 4.77313 12.7524 4.71772 12.7354C4.486 12.6617 4.27507 12.5206 4.06225 12.3708C3.58245 12.0327 3.18387 11.6259 2.87912 11.1599C2.76515 10.9868 2.62284 10.7563 2.53343 10.5145C2.49062 10.3999 2.46228 10.2532 2.57562 10.2066C2.58821 10.201 2.79537 10.116 6.47762 8.60478C6.48328 8.60227 6.49021 8.59912 6.49588 8.59661C6.51414 8.58968 6.53428 8.58591 6.55506 8.58591C6.65329 8.58591 6.732 8.66525 6.73263 8.76285H6.732Z" fill="url(#paint0_linear_507_307)"/>
<path d="M6.27309 7.5627C6.27309 7.637 6.22901 7.69933 6.16542 7.72703L2.17527 9.16895C2.0783 9.20295 2.01911 9.12301 1.99203 9.07075C1.87932 8.85478 1.83021 8.60668 1.78613 8.34978C1.68601 7.77112 1.69168 7.2019 1.80565 6.65661C1.84721 6.45386 1.91018 6.19003 2.0166 5.95642C2.05941 5.86135 2.12741 5.75809 2.21556 5.75809C2.23193 5.75809 2.24768 5.76125 2.26531 5.76817H2.26657C2.27475 5.77132 3.32124 6.20958 4.36837 6.64656C5.0761 6.94313 5.78258 7.23844 6.16542 7.39837C6.22901 7.42482 6.27309 7.4884 6.27309 7.56144V7.5627Z" fill="url(#paint1_linear_507_307)"/>
<path d="M6.80137 6.38144C6.80137 6.47715 6.72833 6.55712 6.63263 6.56342C6.60177 6.56531 6.57406 6.5609 6.54825 6.5502L2.71613 4.75315C2.62231 4.70844 2.63868 4.60958 2.65568 4.55542C2.72935 4.32245 2.8704 4.11216 3.019 3.89871C3.35713 3.41891 3.76514 3.02158 4.22983 2.71619C4.40299 2.60159 4.63345 2.45993 4.87523 2.36926C4.92939 2.34848 4.99109 2.33212 5.0465 2.33212C5.10695 2.33212 5.15985 2.35289 5.18441 2.41271C5.18882 2.42404 5.62013 3.47557 6.04956 4.52333C6.33165 5.21155 6.61437 5.89723 6.7743 6.28825C6.7743 6.28825 6.77556 6.28825 6.7743 6.28951C6.78248 6.30777 6.7894 6.32541 6.79633 6.34304C6.79759 6.3443 6.79759 6.34557 6.79759 6.3462C6.80011 6.35754 6.80137 6.36949 6.80137 6.38208V6.38144Z" fill="url(#paint2_linear_507_307)"/>
<path d="M9.63214 2.05253C9.63214 2.0689 9.62899 2.08465 9.62207 2.10228C9.6164 2.11613 8.38919 5.05037 7.99124 6.00116C7.98998 6.00368 7.98872 6.00556 7.98746 6.00808C7.95975 6.07041 7.89869 6.11321 7.82691 6.11384C7.75764 6.11384 7.6972 6.07483 7.66823 6.01564L7.65186 5.97155V5.97029L6.22127 2.01226C6.18664 1.91403 6.26724 1.85485 6.31824 1.8284C6.53422 1.71569 6.78293 1.66658 7.03983 1.6225C7.30933 1.57591 7.57693 1.55197 7.84076 1.55197C8.14299 1.55197 8.44145 1.58092 8.73172 1.64199C8.93573 1.68481 9.19957 1.74652 9.43317 1.85294C9.52825 1.89575 9.63151 1.96375 9.63151 2.05253H9.63214Z" fill="url(#paint3_linear_507_307)"/>
<path d="M13.0595 4.88293C13.0595 4.94338 13.0387 4.99626 12.9789 5.02082C12.9663 5.02523 12.7592 5.11149 9.07187 6.62519C9.06935 6.62645 9.06808 6.62645 9.0662 6.62771C9.04542 6.6359 9.02338 6.64032 9.00008 6.64032C8.90185 6.64032 8.82314 6.56098 8.82251 6.46212C8.82251 6.43756 8.82693 6.41489 8.83638 6.39411V6.39285L10.6372 2.55257C10.6649 2.4959 10.7134 2.47952 10.7587 2.47952C10.7877 2.47952 10.8154 2.48517 10.8362 2.4921C11.0692 2.56577 11.2788 2.70681 11.4916 2.85667C11.9727 3.1948 12.37 3.60156 12.6748 4.06625C12.7887 4.24066 12.9311 4.47112 13.0217 4.71165C13.0412 4.7658 13.0589 4.82752 13.0589 4.88293H13.0595Z" fill="url(#paint4_linear_507_307)"/>
<path d="M14.72 5.08755C14.5519 5.13604 14.3731 5.05291 14.3013 4.89235C13.659 3.45232 12.5124 2.25598 11.1184 1.52432C9.7287 0.795171 8.09977 0.532598 6.55333 0.810908C4.92125 1.10496 3.43146 1.99593 2.38686 3.28232C2.05755 3.68782 1.77358 4.13111 1.54375 4.60021C1.01043 5.69015 0.748485 6.91357 0.829081 8.12692C1.00035 10.7432 2.59087 13.0156 4.7613 14.0722C4.88409 14.132 4.95713 14.2548 4.9565 14.3864C4.9565 14.4223 4.95021 14.4588 4.93887 14.4947C4.87276 14.6955 4.64419 14.7957 4.45404 14.7025C2.88304 13.9337 1.63821 12.6901 0.887651 11.1071C0.121984 9.4914 -0.0908469 7.60681 0.330396 5.8658C0.362508 5.73357 0.399654 5.60323 0.436804 5.47227C0.859306 3.99194 1.81765 2.63315 3.01841 1.67229C4.39296 0.572907 6.1472 -0.0202508 7.90584 0.000527968C9.59647 0.0200474 11.272 0.600595 12.6176 1.62316C13.6326 2.39638 14.4329 3.44226 14.9435 4.60965C15.0279 4.80359 14.9215 5.0271 14.7194 5.08755H14.72Z" fill="url(#paint5_linear_507_307)"/>
<path d="M15.7818 15.6608C15.6414 15.6212 15.4953 15.6892 15.4305 15.8201C15.0527 16.577 14.3802 16.9561 13.4156 16.9561C12.6373 16.9561 12.0228 16.6733 11.5694 16.1098C11.1148 15.5469 10.8887 14.7529 10.8887 13.7297C10.8887 12.7065 11.1154 11.8936 11.5694 11.3294C12.0228 10.7665 12.6373 10.4844 13.4156 10.4844C13.9596 10.4844 14.4167 10.6179 14.7851 10.883C15.0496 11.0738 15.2592 11.3149 15.4141 11.6077C15.4891 11.7494 15.6578 11.813 15.8032 11.7444L17.7344 10.8364C17.8956 10.7608 17.9573 10.5606 17.8641 10.4089C17.5676 9.92654 17.1961 9.5141 16.749 9.17219C15.875 8.50601 14.7693 8.1723 13.4351 8.1723C12.3993 8.1723 11.4794 8.40148 10.6766 8.86176C9.87249 9.32141 9.2447 9.96995 8.79072 10.8049C8.33736 11.6404 8.11133 12.6152 8.11133 13.7291C8.11133 14.8429 8.33799 15.8183 8.79072 16.6544C9.24533 17.49 9.87249 18.1373 10.6766 18.5976C11.4794 19.0572 12.3993 19.2871 13.4351 19.2871C14.7574 19.2871 15.8574 18.9433 16.7389 18.2563C17.2937 17.825 17.7325 17.2979 18.0549 16.6765C18.1418 16.509 18.0499 16.3037 17.8685 16.2521L15.7831 15.6608H15.7818Z" fill="#6B9907"/>
<path d="M29.7835 8.48268H27.9437C27.7818 8.48268 27.6509 8.61364 27.6509 8.77546L27.4021 9.98064C27.0483 9.50084 26.5773 9.10228 25.9892 8.78619C25.4011 8.4701 24.716 8.31204 23.9321 8.31204C23.0329 8.31204 22.2213 8.53306 21.4947 8.97571C20.7668 9.41773 20.1919 10.0512 19.7681 10.8722C19.3438 11.6952 19.1328 12.6366 19.1328 13.6988C19.1328 14.761 19.3444 15.7256 19.7681 16.553C20.1925 17.3817 20.7668 18.0233 21.4947 18.4792C22.2213 18.935 23.0273 19.1623 23.9126 19.1623C24.6965 19.1623 25.3891 19.0005 25.9892 18.6788C26.5893 18.3558 27.0609 17.9484 27.4021 17.4553V18.6983C27.4021 18.8601 27.5331 18.9911 27.6949 18.9911H29.7835C29.9453 18.9911 30.0763 18.8601 30.0763 18.6983V8.77546C30.0763 8.61364 29.9453 8.48268 29.7835 8.48268ZM27.0231 15.397C26.7706 15.8585 26.4287 16.2124 25.9986 16.4592C25.5686 16.706 25.1064 16.8301 24.6134 16.8301C24.1203 16.8301 23.6815 16.7035 23.2571 16.4498C22.834 16.1973 22.4927 15.834 22.2326 15.3598C21.9739 14.8857 21.8435 14.3316 21.8435 13.7C21.8435 13.0685 21.9732 12.5213 22.2326 12.0598C22.4927 11.5982 22.8302 11.2469 23.2483 11.0064C23.6651 10.7671 24.121 10.6468 24.6127 10.6468C25.1045 10.6468 25.5679 10.7696 25.998 11.0164C26.4281 11.2633 26.7693 11.6165 27.0225 12.0787C27.2749 12.5402 27.4015 13.0931 27.4015 13.7385C27.4015 14.3839 27.2749 14.9367 27.0225 15.3982L27.0231 15.397Z" fill="#6B9907"/>
<path d="M32.9369 6.78455C32.6271 6.48735 32.4722 6.11773 32.4722 5.67508C32.4722 5.23243 32.6271 4.86282 32.9369 4.56562C33.2467 4.26842 33.6351 4.11981 34.1036 4.11981C34.5721 4.11981 34.9599 4.26842 35.2704 4.56562C35.5802 4.86282 35.7351 5.23306 35.7351 5.67508C35.7351 6.11711 35.5802 6.48798 35.2704 6.78455C34.9606 7.08175 34.5714 7.23033 34.1036 7.23033C33.6358 7.23033 33.2467 7.08175 32.9369 6.78455ZM35.412 8.77551V18.699C35.412 18.8608 35.2811 18.9917 35.1193 18.9917H33.0489C32.8871 18.9917 32.7561 18.8608 32.7561 18.699V8.77551C32.7561 8.61369 32.8871 8.48273 33.0489 8.48273H35.1193C35.2811 8.48273 35.412 8.61369 35.412 8.77551Z" fill="#6B9907"/>
<path d="M42.1796 8.79563C42.7802 8.47325 43.466 8.31204 44.2379 8.31204C45.1358 8.31204 45.9481 8.53368 46.6753 8.97571C47.4026 9.41836 47.9775 10.0474 48.4012 10.8634C48.825 11.6788 49.0366 12.6246 49.0366 13.6994C49.0366 14.7742 48.8244 15.7263 48.4012 16.5543C47.9775 17.3829 47.402 18.0245 46.6753 18.4798C45.9481 18.935 45.1358 19.163 44.2379 19.163C43.4666 19.163 42.7865 19.0049 42.1984 18.6889C41.6103 18.3728 41.1331 17.9748 40.7666 17.4937V23.7003C40.7666 23.8659 40.6325 24 40.4669 24H38.411C38.2454 24 38.1113 23.8659 38.1113 23.7003V8.77611C38.1113 8.61429 38.2423 8.48332 38.4041 8.48332H40.2251C40.3869 8.48332 40.5179 8.61429 40.5179 8.77611L40.7666 10.0008C41.1079 9.52035 41.5789 9.11863 42.1796 8.79625V8.79563ZM45.9355 12.0579C45.6761 11.5964 45.3348 11.2456 44.911 11.0051C44.4873 10.7652 44.0289 10.645 43.5358 10.645C43.0428 10.645 42.6033 10.7684 42.1796 11.0152C41.7558 11.262 41.4145 11.619 41.1551 12.0869C40.8957 12.5547 40.766 13.105 40.766 13.7372C40.766 14.3694 40.8957 14.9197 41.1551 15.3875C41.4139 15.8554 41.7558 16.2124 42.1796 16.4592C42.6549 16.7363 43.1669 16.8578 43.7147 16.8238C44.0276 16.8043 44.3361 16.7281 44.6226 16.6002C45.1824 16.3496 45.62 15.9391 45.9361 15.3686C46.1949 14.9008 46.3246 14.3442 46.3246 13.6994C46.3246 13.0546 46.1949 12.5201 45.9361 12.0585L45.9355 12.0579Z" fill="#6B9907"/>
<path d="M51.2323 6.78455C50.9225 6.48735 50.7676 6.11773 50.7676 5.67508C50.7676 5.23243 50.9225 4.86282 51.2323 4.56562C51.5421 4.26842 51.9306 4.11981 52.399 4.11981C52.8675 4.11981 53.2554 4.26842 53.5658 4.56562C53.8756 4.86282 54.0305 5.23306 54.0305 5.67508C54.0305 6.11711 53.8756 6.48798 53.5658 6.78455C53.256 7.08175 52.8669 7.23033 52.399 7.23033C51.9312 7.23033 51.5421 7.08175 51.2323 6.78455ZM53.7081 8.77551V18.699C53.7081 18.8608 53.5771 18.9917 53.4153 18.9917H51.345C51.1831 18.9917 51.0522 18.8608 51.0522 18.699V8.77551C51.0522 8.61369 51.1831 8.48273 51.345 8.48273H53.4153C53.5771 8.48273 53.7081 8.61369 53.7081 8.77551Z" fill="#6B9907"/>
<defs>
<linearGradient id="paint0_linear_507_307" x1="4.61424" y1="8.58591" x2="4.61424" y2="12.748" gradientUnits="userSpaceOnUse">
<stop stop-color="#C1DC49"/>
<stop offset="1" stop-color="#ECF45B"/>
</linearGradient>
<linearGradient id="paint1_linear_507_307" x1="3.99421" y1="5.75809" x2="3.99421" y2="9.17711" gradientUnits="userSpaceOnUse">
<stop stop-color="#C1DC49"/>
<stop offset="1" stop-color="#ECF45B"/>
</linearGradient>
<linearGradient id="paint2_linear_507_307" x1="4.72197" y1="2.33212" x2="4.72197" y2="6.56384" gradientUnits="userSpaceOnUse">
<stop stop-color="#C1DC49"/>
<stop offset="1" stop-color="#ECF45B"/>
</linearGradient>
<linearGradient id="paint3_linear_507_307" x1="7.92251" y1="1.55197" x2="7.92251" y2="6.11384" gradientUnits="userSpaceOnUse">
<stop stop-color="#C1DC49"/>
<stop offset="1" stop-color="#ECF45B"/>
</linearGradient>
<linearGradient id="paint4_linear_507_307" x1="10.941" y1="2.47952" x2="10.941" y2="6.64032" gradientUnits="userSpaceOnUse">
<stop stop-color="#C1DC49"/>
<stop offset="1" stop-color="#ECF45B"/>
</linearGradient>
<linearGradient id="paint5_linear_507_307" x1="7.54504" y1="0" x2="7.54504" y2="14.7376" gradientUnits="userSpaceOnUse">
<stop stop-color="#C1DC49"/>
<stop offset="1" stop-color="#ECF45B"/>
</linearGradient>
</defs>
</svg>
