<svg width="57" height="25" viewBox="0 0 57 25" fill="none" xmlns="http://www.w3.org/2000/svg">
<path d="M7.09442 9.12798C7.09442 9.15355 7.08983 9.17849 7.07999 9.20013L6.3677 10.7198L6.36507 10.7225L6.32309 10.813L5.20348 13.2017C5.15691 13.2995 5.05393 13.2837 4.99621 13.266C4.75484 13.1893 4.53512 13.0423 4.31343 12.8862C3.81364 12.534 3.39845 12.1103 3.081 11.625C2.96228 11.4446 2.81405 11.2045 2.72091 10.9527C2.67631 10.8333 2.64679 10.6805 2.76485 10.6319C2.77797 10.626 2.99376 10.5375 6.82943 8.96333C6.83534 8.96071 6.84256 8.95743 6.84846 8.95481C6.86748 8.94759 6.88846 8.94366 6.91011 8.94366C7.01243 8.94366 7.09442 9.02631 7.09508 9.12798H7.09442Z" fill="url(#paint0_linear_31_26)"/>
<path d="M6.61631 7.87782C6.61631 7.95522 6.5704 8.02014 6.50416 8.049L2.34776 9.551C2.24675 9.58642 2.18508 9.50314 2.15688 9.44871C2.03947 9.22373 1.98831 8.9653 1.9424 8.69769C1.83811 8.09492 1.84402 7.50199 1.96274 6.93398C2.00603 6.72278 2.07162 6.44795 2.18247 6.20462C2.22707 6.10558 2.2979 5.99802 2.38973 5.99802C2.40678 5.99802 2.42318 6.00131 2.44154 6.00852H2.44286C2.45138 6.0118 3.54147 6.46832 4.63223 6.92351C5.36945 7.23243 6.10537 7.54005 6.50416 7.70664C6.5704 7.73419 6.61631 7.80043 6.61631 7.87651V7.87782Z" fill="url(#paint1_linear_31_26)"/>
<path d="M7.16661 6.64733C7.16661 6.74702 7.09053 6.83033 6.99083 6.83689C6.95869 6.83886 6.92983 6.83427 6.90294 6.82312L2.91115 4.95119C2.81342 4.90462 2.83048 4.80164 2.84819 4.74523C2.92493 4.50255 3.07185 4.2835 3.22664 4.06115C3.57885 3.56136 4.00387 3.14747 4.48792 2.82936C4.6683 2.70999 4.90835 2.56243 5.16022 2.46798C5.21662 2.44633 5.2809 2.42929 5.33862 2.42929C5.40158 2.42929 5.45669 2.45092 5.48227 2.51323C5.48686 2.52504 5.93615 3.62038 6.38347 4.71179C6.67731 5.42869 6.97181 6.14294 7.13841 6.55026C7.13841 6.55026 7.13972 6.55026 7.13841 6.55157C7.14693 6.57059 7.15414 6.58896 7.16135 6.60733C7.16267 6.60864 7.16267 6.60997 7.16267 6.61062C7.16529 6.62243 7.16661 6.63488 7.16661 6.648V6.64733Z" fill="url(#paint2_linear_31_26)"/>
<path d="M10.1155 2.13806C10.1155 2.15511 10.1123 2.17151 10.1051 2.18987C10.0992 2.2043 8.82081 5.2608 8.40628 6.25121C8.40497 6.25383 8.40365 6.25579 8.40234 6.25841C8.37348 6.32334 8.30987 6.36793 8.2351 6.36858C8.16295 6.36858 8.09998 6.32794 8.06981 6.26629L8.05276 6.22036V6.21905L6.56257 2.0961C6.52649 1.99378 6.61045 1.93213 6.66358 1.90459C6.88855 1.78718 7.14763 1.73602 7.41523 1.69011C7.69595 1.64157 7.97471 1.61664 8.24953 1.61664C8.56436 1.61664 8.87525 1.64679 9.17761 1.71041C9.39012 1.75501 9.66495 1.8193 9.90829 1.93014C10.0073 1.97474 10.1149 2.04557 10.1149 2.13806H10.1155Z" fill="url(#paint3_linear_31_26)"/>
<path d="M13.6855 5.08637C13.6855 5.14934 13.6639 5.20443 13.6016 5.23001C13.5885 5.2346 13.3727 5.32446 9.53175 6.90123C9.52913 6.90254 9.52781 6.90254 9.52584 6.90386C9.5042 6.91238 9.48124 6.91699 9.45697 6.91699C9.35465 6.91699 9.27266 6.83434 9.272 6.73136C9.272 6.70578 9.27661 6.68217 9.28645 6.66052V6.65921L11.1623 2.65892C11.1912 2.59989 11.2417 2.58282 11.2889 2.58282C11.3191 2.58282 11.3479 2.58871 11.3696 2.59592C11.6123 2.67266 11.8307 2.81959 12.0524 2.97569C12.5535 3.32791 12.9673 3.75161 13.2848 4.23566C13.4035 4.41734 13.5517 4.6574 13.6462 4.90795C13.6665 4.96436 13.6849 5.02865 13.6849 5.08637H13.6855Z" fill="url(#paint4_linear_31_26)"/>
<path d="M15.4151 5.29953C15.24 5.35004 15.0537 5.26345 14.9789 5.0962C14.3099 3.59616 13.1156 2.34998 11.6634 1.58783C10.2158 0.828303 8.51904 0.554789 6.90816 0.844695C5.20808 1.151 3.65622 2.07909 2.56809 3.41908C2.22505 3.84148 1.92925 4.30324 1.68985 4.79189C1.13431 5.92724 0.861448 7.20163 0.945403 8.46554C1.12381 11.1908 2.78059 13.5579 5.04147 14.6585C5.16937 14.7208 5.24546 14.8487 5.2448 14.9858C5.2448 15.0232 5.23824 15.0612 5.22643 15.0986C5.15756 15.3078 4.91948 15.4121 4.7214 15.3151C3.08494 14.5142 1.78824 13.2188 1.00641 11.5699C0.208844 9.88687 -0.0128551 7.92376 0.425939 6.11021C0.45939 5.97247 0.498084 5.8367 0.536781 5.70028C0.976887 4.15827 1.97516 2.74287 3.22595 1.74197C4.65777 0.596778 6.4851 -0.0210946 8.31702 0.000549967C10.0781 0.0208827 11.8234 0.62562 13.2251 1.69079C14.2824 2.49623 15.116 3.58569 15.648 4.80172C15.7359 5.00373 15.625 5.23657 15.4145 5.29953H15.4151Z" fill="url(#paint5_linear_31_26)"/>
<path d="M16.521 16.3133C16.3747 16.272 16.2226 16.3429 16.155 16.4793C15.7615 17.2677 15.061 17.6625 14.0561 17.6625C13.2455 17.6625 12.6053 17.368 12.1331 16.781C11.6595 16.1946 11.424 15.3675 11.424 14.3017C11.424 13.2359 11.6602 12.3891 12.1331 11.8014C12.6053 11.2151 13.2455 10.9212 14.0561 10.9212C14.6228 10.9212 15.099 11.0603 15.4827 11.3364C15.7582 11.5351 15.9766 11.7863 16.138 12.0913C16.216 12.2389 16.3918 12.3052 16.5433 12.2337L18.5549 11.2879C18.7228 11.2091 18.7871 11.0006 18.69 10.8425C18.3811 10.3401 17.9941 9.91049 17.5285 9.55434C16.6181 8.8604 15.4663 8.51279 14.0765 8.51279C12.9975 8.51279 12.0393 8.75151 11.203 9.23097C10.3654 9.70978 9.71148 10.3853 9.23858 11.2551C8.76634 12.1254 8.53088 13.1408 8.53088 14.3011C8.53088 15.4613 8.76699 16.4773 9.23858 17.3484C9.71214 18.2187 10.3654 18.893 11.203 19.3724C12.0393 19.8512 12.9975 20.0907 14.0765 20.0907C15.4538 20.0907 16.5997 19.7325 17.518 19.0169C18.0958 18.5677 18.553 18.0187 18.8888 17.3713C18.9793 17.1968 18.8835 16.983 18.6946 16.9292L16.5223 16.3133H16.521Z" fill="white"/>
<path d="M31.1061 8.83613H29.1896C29.021 8.83613 28.8846 8.97255 28.8846 9.14112L28.6255 10.3965C28.2569 9.89672 27.7663 9.48155 27.1537 9.15229C26.5411 8.82303 25.8275 8.65839 25.0109 8.65839C24.0743 8.65839 23.2288 8.88861 22.4719 9.3497C21.7137 9.81014 21.1149 10.47 20.6735 11.3253C20.2314 12.1825 20.0117 13.1631 20.0117 14.2696C20.0117 15.3761 20.232 16.3809 20.6735 17.2427C21.1155 18.1059 21.7137 18.7743 22.4719 19.2491C23.2288 19.724 24.0684 19.9608 24.9906 19.9608C25.8072 19.9608 26.5286 19.7922 27.1537 19.4571C27.7788 19.1206 28.27 18.6962 28.6255 18.1826V19.4774C28.6255 19.646 28.762 19.7824 28.9305 19.7824H31.1061C31.2747 19.7824 31.4111 19.646 31.4111 19.4774V9.14112C31.4111 8.97255 31.2747 8.83613 31.1061 8.83613ZM28.2307 16.0385C27.9677 16.5193 27.6115 16.8879 27.1635 17.145C26.7156 17.4021 26.2341 17.5314 25.7206 17.5314C25.207 17.5314 24.7498 17.3995 24.3078 17.1352C23.867 16.8722 23.5115 16.4937 23.2406 15.9998C22.9711 15.5059 22.8353 14.9287 22.8353 14.2709C22.8353 13.613 22.9704 13.043 23.2406 12.5623C23.5115 12.0815 23.8631 11.7155 24.2986 11.465C24.7328 11.2157 25.2077 11.0905 25.7199 11.0905C26.2322 11.0905 26.7149 11.2184 27.1629 11.4755C27.6109 11.7326 27.9664 12.1005 28.23 12.5819C28.493 13.0627 28.6249 13.6386 28.6249 14.3109C28.6249 14.9832 28.493 15.5591 28.23 16.0398L28.2307 16.0385Z" fill="white"/>
<path d="M34.3909 7.06724C34.0682 6.75766 33.9068 6.37264 33.9068 5.91155C33.9068 5.45045 34.0682 5.06543 34.3909 4.75585C34.7136 4.44627 35.1182 4.29147 35.6062 4.29147C36.0942 4.29147 36.4982 4.44627 36.8216 4.75585C37.1443 5.06543 37.3057 5.45111 37.3057 5.91155C37.3057 6.37199 37.1443 6.75832 36.8216 7.06724C36.4989 7.37683 36.0935 7.53159 35.6062 7.53159C35.1189 7.53159 34.7136 7.37683 34.3909 7.06724ZM36.9692 9.14116V19.4781C36.9692 19.6466 36.8328 19.7831 36.6642 19.7831H34.5076C34.339 19.7831 34.2026 19.6466 34.2026 19.4781V9.14116C34.2026 8.97259 34.339 8.83617 34.5076 8.83617H36.6642C36.8328 8.83617 36.9692 8.97259 36.9692 9.14116Z" fill="white"/>
<path d="M44.0187 9.16213C44.6444 8.82631 45.3587 8.65839 46.1628 8.65839C47.0981 8.65839 47.9443 8.88926 48.7018 9.3497C49.4594 9.8108 50.0582 10.466 50.4996 11.3161C50.941 12.1655 51.1614 13.1506 51.1614 14.2702C51.1614 15.3898 50.9404 16.3815 50.4996 17.2441C50.0582 18.1072 49.4587 18.7756 48.7018 19.2498C47.9443 19.724 47.0981 19.9614 46.1628 19.9614C45.3594 19.9614 44.651 19.7968 44.0384 19.4676C43.4258 19.1383 42.9286 18.7237 42.5469 18.2226V24.6878C42.5469 24.8603 42.4072 25 42.2347 25H40.0932C39.9207 25 39.781 24.8603 39.781 24.6878V9.14179C39.781 8.97322 39.9174 8.8368 40.086 8.8368H41.9828C42.1514 8.8368 42.2878 8.97322 42.2878 9.14179L42.5469 10.4175C42.9024 9.91704 43.393 9.49858 44.0187 9.16277V9.16213ZM47.9311 12.5603C47.6609 12.0796 47.3054 11.7142 46.864 11.4637C46.4226 11.2138 45.9451 11.0885 45.4315 11.0885C44.9179 11.0885 44.4601 11.217 44.0187 11.4742C43.5773 11.7313 43.2218 12.1032 42.9516 12.5905C42.6813 13.0778 42.5462 13.6511 42.5462 14.3096C42.5462 14.9681 42.6813 15.5414 42.9516 16.0287C43.2211 16.516 43.5773 16.8879 44.0187 17.145C44.5139 17.4336 45.0472 17.5602 45.6178 17.5248C45.9438 17.5045 46.2652 17.4251 46.5636 17.2919C47.1467 17.0309 47.6025 16.6032 47.9318 16.009C48.2014 15.5217 48.3365 14.9419 48.3365 14.2702C48.3365 13.5986 48.2014 13.0417 47.9318 12.561L47.9311 12.5603Z" fill="white"/>
<path d="M53.4485 7.06724C53.1258 6.75766 52.9645 6.37264 52.9645 5.91155C52.9645 5.45045 53.1258 5.06543 53.4485 4.75585C53.7712 4.44627 54.1759 4.29147 54.6639 4.29147C55.1519 4.29147 55.5559 4.44627 55.8793 4.75585C56.202 5.06543 56.3633 5.45111 56.3633 5.91155C56.3633 6.37199 56.202 6.75832 55.8793 7.06724C55.5566 7.37683 55.1512 7.53159 54.6639 7.53159C54.1766 7.53159 53.7712 7.37683 53.4485 7.06724ZM56.0275 9.14116V19.4781C56.0275 19.6466 55.8911 19.7831 55.7225 19.7831H53.5659C53.3974 19.7831 53.2609 19.6466 53.2609 19.4781V9.14116C53.2609 8.97259 53.3974 8.83617 53.5659 8.83617H55.7225C55.8911 8.83617 56.0275 8.97259 56.0275 9.14116Z" fill="white"/>
<defs>
<linearGradient id="paint0_linear_31_26" x1="4.88842" y1="8.94366" x2="4.88842" y2="13.2792" gradientUnits="userSpaceOnUse">
<stop stop-color="#C1DC49"/>
<stop offset="1" stop-color="#ECF45B"/>
</linearGradient>
<linearGradient id="paint1_linear_31_26" x1="4.24248" y1="5.99802" x2="4.24248" y2="9.5595" gradientUnits="userSpaceOnUse">
<stop stop-color="#C1DC49"/>
<stop offset="1" stop-color="#ECF45B"/>
</linearGradient>
<linearGradient id="paint2_linear_31_26" x1="5.00057" y1="2.42929" x2="5.00057" y2="6.83733" gradientUnits="userSpaceOnUse">
<stop stop-color="#C1DC49"/>
<stop offset="1" stop-color="#ECF45B"/>
</linearGradient>
<linearGradient id="paint3_linear_31_26" x1="8.33469" y1="1.61664" x2="8.33469" y2="6.36858" gradientUnits="userSpaceOnUse">
<stop stop-color="#C1DC49"/>
<stop offset="1" stop-color="#ECF45B"/>
</linearGradient>
<linearGradient id="paint4_linear_31_26" x1="11.4788" y1="2.58282" x2="11.4788" y2="6.91699" gradientUnits="userSpaceOnUse">
<stop stop-color="#C1DC49"/>
<stop offset="1" stop-color="#ECF45B"/>
</linearGradient>
<linearGradient id="paint5_linear_31_26" x1="7.94119" y1="0" x2="7.94119" y2="15.3516" gradientUnits="userSpaceOnUse">
<stop stop-color="#C1DC49"/>
<stop offset="1" stop-color="#ECF45B"/>
</linearGradient>
</defs>
</svg>
