<svg width="119" height="54" viewBox="0 0 119 54" fill="none" xmlns="http://www.w3.org/2000/svg">
<path d="M14.6004 20.2546C14.6004 20.3088 14.5907 20.3616 14.5698 20.4075L13.0605 23.6277L13.055 23.6332L12.966 23.825L10.5936 28.8867C10.4949 29.0938 10.2767 29.0605 10.1544 29.0229C9.64292 28.8603 9.17734 28.549 8.70758 28.2182C7.64853 27.4719 6.76877 26.5741 6.09609 25.5456C5.84453 25.1634 5.53043 24.6547 5.33308 24.121C5.23857 23.8681 5.17602 23.5442 5.42619 23.4414C5.45398 23.4289 5.91123 23.2413 14.0389 19.9057C14.0514 19.9001 14.0667 19.8932 14.0792 19.8876C14.1195 19.8723 14.164 19.864 14.2099 19.864C14.4267 19.864 14.6004 20.0391 14.6018 20.2546H14.6004Z" fill="#C6C6C6"/>
<path d="M13.5871 17.6058C13.5871 17.7698 13.4899 17.9074 13.3495 17.9685L4.54218 21.1512C4.32815 21.2263 4.19749 21.0498 4.13772 20.9345C3.88894 20.4578 3.78054 19.9101 3.68325 19.3431C3.46227 18.0658 3.47478 16.8094 3.72634 15.6058C3.81807 15.1583 3.95706 14.576 4.19195 14.0603C4.28645 13.8505 4.43654 13.6226 4.63112 13.6226C4.66725 13.6226 4.702 13.6295 4.74092 13.6448H4.7437C4.76177 13.6518 7.07164 14.6191 9.38292 15.5836C10.9451 16.2383 12.5045 16.8901 13.3495 17.2431C13.4899 17.3015 13.5871 17.4418 13.5871 17.603V17.6058Z" fill="#C6C6C6"/>
<path d="M14.7532 14.9982C14.7532 15.2095 14.592 15.386 14.3808 15.3999C14.3126 15.4041 14.2515 15.3943 14.1945 15.3707L5.73602 11.4041C5.52893 11.3055 5.56507 11.0872 5.6026 10.9677C5.76521 10.4535 6.07653 9.98932 6.40453 9.51817C7.15086 8.45912 8.05147 7.58211 9.07716 6.90804C9.45936 6.65509 9.96804 6.34242 10.5017 6.14228C10.6213 6.09642 10.7575 6.0603 10.8798 6.0603C11.0132 6.0603 11.13 6.10614 11.1842 6.23817C11.1939 6.26319 12.1459 8.5842 13.0938 10.8969C13.7164 12.4159 14.3404 13.9294 14.6935 14.7925C14.6935 14.7925 14.6962 14.7925 14.6935 14.7953C14.7115 14.8356 14.7268 14.8745 14.7421 14.9134C14.7449 14.9162 14.7449 14.919 14.7449 14.9204C14.7504 14.9455 14.7532 14.9718 14.7532 14.9996V14.9982Z" fill="#C6C6C6"/>
<path d="M21.002 5.44325C21.002 5.47938 20.9951 5.51414 20.9798 5.55305C20.9673 5.58363 18.2585 12.0603 17.3801 14.1589C17.3773 14.1645 17.3746 14.1686 17.3718 14.1742C17.3106 14.3118 17.1758 14.4062 17.0174 14.4076C16.8645 14.4076 16.7311 14.3215 16.6672 14.1909L16.631 14.0936V14.0908L13.4733 5.35435C13.3969 5.13754 13.5748 5.0069 13.6874 4.94853C14.1641 4.69975 14.7131 4.59134 15.2801 4.49406C15.875 4.39121 16.4656 4.33838 17.048 4.33838C17.7151 4.33838 18.3738 4.40227 19.0146 4.53708C19.4649 4.63159 20.0472 4.7678 20.5628 5.00269C20.7727 5.09719 21.0006 5.24728 21.0006 5.44325H21.002Z" fill="#C6C6C6"/>
<path d="M28.5667 11.6907C28.5667 11.8241 28.5208 11.9409 28.3888 11.9951C28.361 12.0048 27.9038 12.1952 19.7649 15.5363C19.7594 15.5391 19.7566 15.5391 19.7524 15.5419C19.7066 15.56 19.6579 15.5697 19.6065 15.5697C19.3897 15.5697 19.2159 15.3946 19.2145 15.1764C19.2145 15.1222 19.2243 15.0721 19.2451 15.0263V15.0235L23.22 6.54698C23.2812 6.4219 23.3882 6.38574 23.4883 6.38574C23.5522 6.38574 23.6134 6.39821 23.6592 6.4135C24.1735 6.57611 24.6363 6.88743 25.106 7.21821C26.1679 7.96455 27.0448 8.86237 27.7175 9.88806C27.9691 10.273 28.2832 10.7817 28.4833 11.3126C28.5264 11.4322 28.5653 11.5684 28.5653 11.6907H28.5667Z" fill="#C6C6C6"/>
<path d="M32.2317 12.1424C31.8606 12.2494 31.4659 12.066 31.3075 11.7115C29.8899 8.53302 27.359 5.89239 24.2819 4.27741C21.2146 2.66799 17.6191 2.08843 14.2057 2.70273C10.6033 3.35178 7.31494 5.31838 5.00922 8.15779C4.28234 9.05284 3.65555 10.0313 3.14826 11.0667C1.97108 13.4725 1.3929 16.1729 1.5708 18.8511C1.94883 24.6258 5.45952 29.6417 10.2502 31.9738C10.5213 32.1058 10.6825 32.3769 10.6811 32.6674C10.6811 32.7466 10.6672 32.8271 10.6422 32.9064C10.4963 33.3497 9.99175 33.5707 9.57203 33.3651C6.10441 31.6681 3.35675 28.9232 1.70008 25.4291C0.010049 21.8629 -0.459725 17.7031 0.470067 13.8602C0.540948 13.5683 0.62294 13.2807 0.704939 12.9916C1.63751 9.72409 3.75283 6.7249 6.40322 4.60403C9.43721 2.1774 13.3093 0.868143 17.1911 0.914007C20.9227 0.957092 24.621 2.23851 27.5911 4.49559C29.8315 6.20229 31.598 8.51081 32.7251 11.0875C32.9114 11.5156 32.6765 12.009 32.2303 12.1424H32.2317Z" fill="#C6C6C6"/>
<path d="M34.5751 35.4803C34.2652 35.3928 33.9428 35.5429 33.7996 35.832C32.9657 37.5025 31.4814 38.3392 29.3522 38.3392C27.6343 38.3392 26.2779 37.7151 25.2772 36.4712C24.2737 35.2287 23.7748 33.4762 23.7748 31.2177C23.7748 28.9593 24.2751 27.165 25.2772 25.9197C26.2779 24.6772 27.6343 24.0546 29.3522 24.0546C30.553 24.0546 31.562 24.3492 32.375 24.9343C32.9588 25.3555 33.4216 25.8877 33.7635 26.534C33.9289 26.8467 34.3013 26.9871 34.6224 26.8356L38.885 24.8315C39.2408 24.6647 39.377 24.2228 39.1713 23.8878C38.5167 22.8232 37.6967 21.9129 36.7099 21.1582C34.7808 19.6878 32.3403 18.9512 29.3952 18.9512C27.109 18.9512 25.0785 19.457 23.3064 20.473C21.5316 21.4876 20.1459 22.9191 19.1439 24.762C18.1432 26.6063 17.6443 28.7578 17.6443 31.2164C17.6443 33.675 18.1446 35.8278 19.1439 37.6735C20.1473 39.5178 21.5316 40.9465 23.3064 41.9625C25.0785 42.977 27.109 43.4844 29.3952 43.4844C32.3139 43.4844 34.7419 42.7255 36.6877 41.2092C37.9121 40.2572 38.8808 39.0938 39.5924 37.7221C39.7842 37.3524 39.5813 36.8993 39.181 36.7854L34.5779 35.4803H34.5751Z" fill="#C6C6C6"/>
<path d="M65.4806 19.6364H61.4196C61.0624 19.6364 60.7733 19.9255 60.7733 20.2827L60.2243 22.9428C59.4432 21.8838 58.4037 21.004 57.1056 20.3063C55.8075 19.6086 54.2953 19.2598 52.565 19.2598C50.5803 19.2598 48.7888 19.7476 47.185 20.7246C45.5783 21.7003 44.3094 23.0985 43.3741 24.9108C42.4373 26.7273 41.9717 28.8051 41.9717 31.1498C41.9717 33.4944 42.4387 35.6235 43.3741 37.4498C44.3108 39.2788 45.5783 40.6951 47.185 41.7013C48.7888 42.7075 50.5678 43.2092 52.5219 43.2092C54.2523 43.2092 55.7811 42.8521 57.1056 42.1419C58.4301 41.4289 59.471 40.5296 60.2243 39.4414V42.185C60.2243 42.5421 60.5134 42.8312 60.8706 42.8312H65.4806C65.8378 42.8312 66.1269 42.5421 66.1269 42.185V20.2827C66.1269 19.9255 65.8378 19.6364 65.4806 19.6364ZM59.3876 34.8981C58.8303 35.9168 58.0756 36.6979 57.1264 37.2427C56.1771 37.7875 55.157 38.0614 54.0688 38.0614C52.9805 38.0614 52.0118 37.782 51.0751 37.2219C50.1411 36.6646 49.3879 35.8626 48.8139 34.8161C48.2427 33.7696 47.9549 32.5465 47.9549 31.1525C47.9549 29.7585 48.2413 28.5507 48.8139 27.532C49.3879 26.5133 50.1328 25.7377 51.0556 25.2068C51.9757 24.6787 52.9819 24.4132 54.0674 24.4132C55.1528 24.4132 56.1758 24.6843 57.125 25.2291C58.0743 25.7739 58.8275 26.5535 59.3863 27.5737C59.9436 28.5924 60.2229 29.8127 60.2229 31.2373C60.2229 32.6619 59.9436 33.8821 59.3863 34.9009L59.3876 34.8981Z" fill="#C6C6C6"/>
<path d="M72.4408 15.8881C71.757 15.2321 71.4151 14.4163 71.4151 13.4392C71.4151 12.4622 71.757 11.6464 72.4408 10.9904C73.1246 10.3344 73.9821 10.0063 75.0161 10.0063C76.0502 10.0063 76.9063 10.3344 77.5915 10.9904C78.2753 11.6464 78.6172 12.4636 78.6172 13.4392C78.6172 14.4149 78.2753 15.2335 77.5915 15.8881C76.9077 16.5441 76.0488 16.8721 75.0161 16.8721C73.9835 16.8721 73.1246 16.5441 72.4408 15.8881ZM77.9042 20.2827V42.1864C77.9042 42.5435 77.6151 42.8326 77.2579 42.8326H72.6882C72.331 42.8326 72.0419 42.5435 72.0419 42.1864V20.2827C72.0419 19.9255 72.331 19.6364 72.6882 19.6364H77.2579C77.6151 19.6364 77.9042 19.9255 77.9042 20.2827Z" fill="#C6C6C6"/>
<path d="M92.8419 20.3272C94.1678 19.6156 95.6814 19.2598 97.3853 19.2598C99.3672 19.2598 101.16 19.749 102.765 20.7246C104.371 21.7017 105.639 23.0901 106.575 24.8913C107.51 26.6912 107.977 28.7787 107.977 31.1511C107.977 33.5235 107.509 35.6249 106.575 37.4526C105.639 39.2816 104.369 40.6978 102.765 41.7027C101.16 42.7075 99.3672 43.2106 97.3853 43.2106C95.6828 43.2106 94.1817 42.8618 92.8836 42.1641C91.5855 41.4664 90.5321 40.588 89.7232 39.5262V53.2257C89.7232 53.5912 89.4272 53.8872 89.0616 53.8872H84.5239C84.1583 53.8872 83.8623 53.5912 83.8623 53.2257V20.2841C83.8623 19.9269 84.1514 19.6378 84.5086 19.6378H88.528C88.8851 19.6378 89.1742 19.9269 89.1742 20.2841L89.7232 22.9873C90.4765 21.9268 91.5161 21.0401 92.8419 20.3285V20.3272ZM101.132 27.5279C100.56 26.5091 99.8064 25.735 98.871 25.204C97.9357 24.6745 96.9239 24.4091 95.8356 24.4091C94.7474 24.4091 93.7773 24.6815 92.8419 25.2263C91.9066 25.7711 91.1533 26.5592 90.5807 27.5918C90.0081 28.6244 89.7218 29.8391 89.7218 31.2345C89.7218 32.6299 90.0081 33.8446 90.5807 34.8772C91.1519 35.9099 91.9066 36.6979 92.8419 37.2427C93.8913 37.8543 95.0212 38.1225 96.2304 38.0474C96.9211 38.0044 97.6021 37.8361 98.2345 37.554C99.47 37.0009 100.436 36.0947 101.134 34.8355C101.705 33.8029 101.991 32.5743 101.991 31.1511C101.991 29.7279 101.705 28.548 101.134 27.5292L101.132 27.5279Z" fill="#C6C6C6"/>
<path d="M112.823 15.8881C112.14 15.2321 111.798 14.4163 111.798 13.4392C111.798 12.4622 112.14 11.6464 112.823 10.9904C113.507 10.3344 114.365 10.0063 115.399 10.0063C116.433 10.0063 117.289 10.3344 117.974 10.9904C118.658 11.6464 119 12.4636 119 13.4392C119 14.4149 118.658 15.2335 117.974 15.8881C117.29 16.5441 116.431 16.8721 115.399 16.8721C114.366 16.8721 113.507 16.5441 112.823 15.8881ZM118.288 20.2827V42.1864C118.288 42.5435 117.999 42.8326 117.642 42.8326H113.072C112.715 42.8326 112.426 42.5435 112.426 42.1864V20.2827C112.426 19.9255 112.715 19.6364 113.072 19.6364H117.642C117.999 19.6364 118.288 19.9255 118.288 20.2827Z" fill="#C6C6C6"/>
</svg>
