<svg width="40" height="40" viewBox="0 0 40 40" fill="none" xmlns="http://www.w3.org/2000/svg">
<path d="M35.173 24.8232C33.4302 24.8232 31.7587 25.5156 30.5263 26.748C29.2939 27.9804 28.6015 29.6519 28.6015 31.3948" stroke="white" stroke-width="2" stroke-miterlimit="10" stroke-linecap="round" stroke-linejoin="round"/>
<path d="M28.6015 11.8916C28.6015 13.6345 29.2939 15.306 30.5263 16.5384C31.7587 17.7708 33.4302 18.4631 35.173 18.4631" stroke="white" stroke-width="2" stroke-miterlimit="10" stroke-linecap="round" stroke-linejoin="round"/>
<path d="M1.53845 18.4631C3.28133 18.4631 4.95283 17.7708 6.18523 16.5384C7.41763 15.306 8.10999 13.6345 8.10999 11.8916" stroke="white" stroke-width="2" stroke-miterlimit="10" stroke-linecap="round" stroke-linejoin="round"/>
<path d="M8.10999 31.3948C8.10999 30.5318 7.94001 29.6773 7.60976 28.88C7.27951 28.0827 6.79546 27.3582 6.18523 26.748C5.57501 26.1378 4.85057 25.6537 4.05327 25.3235C3.25598 24.9932 2.40144 24.8232 1.53845 24.8232" stroke="white" stroke-width="2" stroke-miterlimit="10" stroke-linecap="round" stroke-linejoin="round"/>
<path d="M1.53845 11.8916H35.1731V31.3947H1.53845V11.8916Z" stroke="white" stroke-width="2" stroke-miterlimit="10" stroke-linecap="round" stroke-linejoin="round"/>
<path d="M20.8669 19.1324C20.8669 18.6358 20.7197 18.1504 20.4439 17.7375C20.168 17.3246 19.7759 17.0028 19.3172 16.8128C18.8584 16.6227 18.3536 16.573 17.8666 16.6698C17.3796 16.7666 16.9322 17.0056 16.5811 17.3567C16.2299 17.7078 15.9907 18.1551 15.8937 18.6421C15.7968 19.129 15.8464 19.6339 16.0363 20.0926C16.2262 20.5514 16.5479 20.9436 16.9607 21.2196C17.3735 21.4956 17.8588 21.643 18.3554 21.6431" stroke="white" stroke-width="2" stroke-miterlimit="10" stroke-linecap="round" stroke-linejoin="round"/>
<path d="M15.8446 24.1538C15.8446 24.6504 15.9919 25.1359 16.2677 25.5487C16.5436 25.9616 16.9358 26.2834 17.3945 26.4735C17.8533 26.6635 18.3582 26.7132 18.8452 26.6164C19.3322 26.5195 19.7796 26.2804 20.1308 25.9292C20.4819 25.5781 20.721 25.1307 20.8179 24.6437C20.9148 24.1566 20.8651 23.6518 20.675 23.193C20.485 22.7342 20.1632 22.3421 19.7503 22.0662C19.3374 21.7903 18.852 21.6431 18.3554 21.6431" stroke="white" stroke-width="2" stroke-miterlimit="10" stroke-linecap="round" stroke-linejoin="round"/>
<path d="M18.3553 15.614V27.6725" stroke="white" stroke-width="2" stroke-miterlimit="10" stroke-linecap="round" stroke-linejoin="round"/>
<path d="M35.1754 28.1062H38.4615V8.60547H4.8269V11.8916" stroke="white" stroke-width="2" stroke-miterlimit="10" stroke-linecap="round" stroke-linejoin="round"/>
<path d="M35.173 24.8232C33.4302 24.8232 31.7587 25.5156 30.5263 26.748C29.2939 27.9804 28.6015 29.6519 28.6015 31.3948" stroke="white" stroke-width="2" stroke-miterlimit="10" stroke-linecap="round" stroke-linejoin="round"/>
<path d="M28.6015 11.8916C28.6015 13.6345 29.2939 15.306 30.5263 16.5384C31.7587 17.7708 33.4302 18.4631 35.173 18.4631" stroke="white" stroke-width="2" stroke-miterlimit="10" stroke-linecap="round" stroke-linejoin="round"/>
<path d="M1.53845 18.4631C3.28133 18.4631 4.95283 17.7708 6.18523 16.5384C7.41763 15.306 8.10999 13.6345 8.10999 11.8916" stroke="white" stroke-width="2" stroke-miterlimit="10" stroke-linecap="round" stroke-linejoin="round"/>
<path d="M8.10999 31.3948C8.10999 30.5318 7.94001 29.6773 7.60976 28.88C7.27951 28.0827 6.79546 27.3582 6.18523 26.748C5.57501 26.1378 4.85057 25.6537 4.05327 25.3235C3.25598 24.9932 2.40144 24.8232 1.53845 24.8232" stroke="white" stroke-width="2" stroke-miterlimit="10" stroke-linecap="round" stroke-linejoin="round"/>
<path d="M1.53845 11.8916H35.1731V31.3947H1.53845V11.8916Z" stroke="white" stroke-width="2" stroke-miterlimit="10" stroke-linecap="round" stroke-linejoin="round"/>
<path d="M20.8669 19.1324C20.8669 18.6358 20.7197 18.1504 20.4439 17.7375C20.168 17.3246 19.7759 17.0028 19.3172 16.8128C18.8584 16.6227 18.3536 16.573 17.8666 16.6698C17.3796 16.7666 16.9322 17.0056 16.5811 17.3567C16.2299 17.7078 15.9907 18.1551 15.8937 18.6421C15.7968 19.129 15.8464 19.6339 16.0363 20.0926C16.2262 20.5514 16.5479 20.9436 16.9607 21.2196C17.3735 21.4956 17.8588 21.643 18.3554 21.6431" stroke="white" stroke-width="2" stroke-miterlimit="10" stroke-linecap="round" stroke-linejoin="round"/>
<path d="M15.8446 24.1538C15.8446 24.6504 15.9919 25.1359 16.2677 25.5487C16.5436 25.9616 16.9358 26.2834 17.3945 26.4735C17.8533 26.6635 18.3582 26.7132 18.8452 26.6164C19.3322 26.5195 19.7796 26.2804 20.1308 25.9292C20.4819 25.5781 20.721 25.1307 20.8179 24.6437C20.9148 24.1566 20.8651 23.6518 20.675 23.193C20.485 22.7342 20.1632 22.3421 19.7503 22.0662C19.3374 21.7903 18.852 21.6431 18.3554 21.6431" stroke="white" stroke-width="2" stroke-miterlimit="10" stroke-linecap="round" stroke-linejoin="round"/>
<path d="M18.3553 15.614V27.6725" stroke="white" stroke-width="2" stroke-miterlimit="10" stroke-linecap="round" stroke-linejoin="round"/>
<path d="M35.1754 28.1062H38.4615V8.60547H4.8269V11.8916" stroke="white" stroke-width="2" stroke-miterlimit="10" stroke-linecap="round" stroke-linejoin="round"/>
</svg>
