<svg width="33" height="29" viewBox="0 0 33 29" fill="none" xmlns="http://www.w3.org/2000/svg">
<path d="M16.6966 0.845969C19.6794 0.845969 22.6641 0.872411 25.6488 0.828971C26.5727 0.81575 27.1591 1.11416 27.6191 1.93763C29.2708 4.89719 30.9639 7.83409 32.6778 10.7578C33.1926 11.636 33.0908 12.3027 32.3705 13.0129C27.4457 17.8554 22.5434 22.7207 17.628 27.5746C16.8135 28.3792 16.1819 28.3678 15.3579 27.5538C10.5537 22.8076 5.75332 18.0594 0.954802 13.3075C-0.250014 12.1138 -0.263212 11.8494 0.62673 10.4008C2.38587 7.53757 4.14879 4.67999 5.87588 1.79975C6.27748 1.12549 6.77713 0.836526 7.55583 0.84408C10.6028 0.868633 13.6497 0.853524 16.6966 0.853524C16.6966 0.851635 16.6966 0.847858 16.6966 0.845969ZM16.5099 5.21449V5.21071C14.7206 5.21071 12.9313 5.21638 11.142 5.21071C9.28858 5.20316 9.33195 5.19938 9.30932 7.03329C9.29989 7.79254 9.5846 7.9172 10.2426 7.89264C11.4965 7.84732 12.7541 7.91531 14.0079 7.8662C14.6584 7.83976 14.8319 8.09096 14.7659 8.68022C14.7093 9.19206 14.9921 9.7851 14.0211 9.82477C12.4581 9.88709 10.9233 10.2025 9.40736 10.6482C7.88202 11.0977 8.16107 12.2631 8.09508 13.3679C8.03286 14.384 8.73991 14.6409 9.44319 14.911C10.9516 15.4927 12.5486 15.657 14.1418 15.7854C14.6301 15.8251 14.7828 15.98 14.7715 16.4635C14.7432 17.5627 14.7942 18.6657 14.7583 19.763C14.7414 20.2748 14.9261 20.4222 15.4032 20.4052C16.1555 20.3806 16.9115 20.3693 17.662 20.4071C18.2106 20.4354 18.3633 20.2201 18.3464 19.6988C18.3143 18.7261 18.3709 17.7478 18.3275 16.7751C18.2974 16.1103 18.4048 15.7987 19.2024 15.7515C20.7315 15.6627 22.2361 15.3718 23.7181 14.9148C25.1774 14.4634 24.987 13.3604 25.0341 12.2706C25.0756 11.3036 24.4515 10.9618 23.7143 10.6879C22.1682 10.1137 20.5505 9.90031 18.9233 9.8021C17.941 9.74355 18.4425 9.05041 18.3539 8.62923C18.2653 8.20428 18.3087 7.83598 18.946 7.86809C19.917 7.91531 20.8918 7.87942 21.8647 7.87942C23.8218 7.87942 23.7992 7.87942 23.7784 5.93786C23.7728 5.3467 23.5729 5.19372 23.011 5.20127C20.8446 5.2296 18.6801 5.2126 16.5137 5.2126L16.5099 5.21449Z" fill="#6B9907"/>
<path d="M16.405 14.4485C14.1877 14.356 11.8931 14.2937 9.68706 13.5722C9.19684 13.4116 8.4502 13.3078 8.4502 12.7582C8.4502 12.3181 9.17987 12.1859 9.64747 12.0291C11.0559 11.557 12.5115 11.3662 13.9859 11.2491C14.6119 11.2 14.8778 11.3416 14.7646 11.9838C14.5874 12.981 15.0305 13.338 15.9883 13.1982C16.2353 13.1623 16.4898 13.1944 16.7406 13.1926C18.2 13.1831 18.2075 13.185 18.3301 11.7326C18.3565 11.4172 18.3678 11.2132 18.7958 11.2359C20.4946 11.3303 22.1708 11.5418 23.7772 12.1292C24.143 12.2633 24.6822 12.3804 24.6747 12.8224C24.669 13.1982 24.1505 13.3059 23.8055 13.4343C22.2933 14.0009 20.7095 14.2162 19.1106 14.322C18.2339 14.3805 17.3553 14.4032 16.405 14.4466V14.4485Z" fill="#6B9907"/>
</svg>
