<svg width="25" height="21" viewBox="0 0 25 21" fill="none" xmlns="http://www.w3.org/2000/svg">
<path d="M10.9358 0.236446C11.0852 0.388039 11.1691 0.593531 11.1691 0.807783C11.1691 1.02204 11.0852 1.22753 10.9358 1.37912L2.72411 9.70123L24.2021 9.70123C24.4137 9.70123 24.6167 9.78641 24.7663 9.93804C24.9159 10.0897 25 10.2953 25 10.5097C25 10.7242 24.9159 10.9298 24.7663 11.0814C24.6167 11.233 24.4137 11.3182 24.2021 11.3182L2.72411 11.3182L10.9358 19.6403C11.0767 19.7936 11.1534 19.9963 11.1498 20.2058C11.1462 20.4152 11.0624 20.6151 10.9162 20.7632C10.77 20.9113 10.5728 20.9962 10.3661 20.9999C10.1594 21.0036 9.95934 20.9258 9.80808 20.783L0.233347 11.0811C0.0839272 10.9295 0 10.724 0 10.5097C0 10.2955 0.0839272 10.09 0.233347 9.93839L9.80808 0.236446C9.95769 0.085041 10.1605 0 10.3719 0C10.5834 0 10.7862 0.085041 10.9358 0.236446Z" fill="white"/>
</svg>
