<svg width="169" height="25" viewBox="0 0 169 25" fill="none" xmlns="http://www.w3.org/2000/svg">
<path d="M154.542 16.4506C154.307 16.6971 154.137 16.9436 153.908 17.1314C152.837 18.0029 151.144 18.1027 149.797 17.3368C148.714 16.7205 147.995 15.7815 147.646 14.6018C147.185 13.0406 147.203 11.456 147.702 9.90068C148.327 7.95509 149.589 6.99843 151.634 6.87518C152.667 6.81356 153.691 6.83703 154.657 7.28308C156.47 8.11942 157.245 9.60136 157.262 11.5294C157.28 13.4779 157.283 15.4293 157.262 17.3779C157.239 19.5817 155.851 21.4833 153.882 21.9704C152.162 22.393 150.528 22.1494 149.084 21.0754C148.359 20.5354 147.963 19.746 147.649 18.9126C147.581 18.7366 147.646 18.6925 147.816 18.6955C148.65 18.7014 149.48 18.7014 150.313 18.6955C150.466 18.6955 150.534 18.7747 150.616 18.8774C151.69 20.2273 153.641 19.9427 154.281 18.3433C154.519 17.7506 154.595 17.1314 154.545 16.4535L154.542 16.4506ZM150.055 12.6151C150.046 12.9467 150.096 13.3957 150.184 13.8359C150.401 14.9187 151 15.4704 152.024 15.5409C153.178 15.6201 153.943 15.133 154.301 14.0912C154.431 13.7185 154.501 13.3312 154.533 12.9409C154.624 11.8815 154.463 10.8896 153.876 9.96231C153.183 8.87066 151.035 8.99098 150.519 10.2059C150.208 10.9424 150.052 11.6996 150.055 12.6122V12.6151Z" fill="#019DE1"/>
<path d="M129.068 16.477C128.977 16.6208 129.012 16.7352 129.009 16.8468C129.006 17.8152 129.009 18.7865 129.006 19.7549C129 20.6763 128.448 21.2192 127.536 21.2192C127.189 21.2192 126.84 21.2104 126.494 21.2251C126.292 21.2339 126.221 21.1576 126.245 20.9668C126.25 20.9228 126.245 20.8759 126.245 20.8289C126.245 17.7359 126.242 14.6429 126.245 11.5499C126.247 9.49869 127.181 8.02262 128.938 7.31246C129.898 6.9251 130.91 6.84 131.935 6.9163C132.862 6.98673 133.731 7.25084 134.485 7.8084C135.368 8.45986 135.882 9.37837 136.146 10.4143C136.551 12.0077 136.498 13.6012 135.887 15.1359C135.33 16.5445 134.376 17.5863 132.806 17.8328C131.348 18.0617 130.007 17.8269 129.062 16.477H129.068ZM129.009 12.3745C129.003 12.8 129.021 13.2255 129.115 13.6452C129.373 14.7779 130.13 15.4851 131.154 15.5438C132.213 15.6055 133.009 15.0655 133.358 13.9768C133.722 12.847 133.695 11.7055 133.261 10.5933C132.918 9.71584 132.175 9.23752 131.242 9.24045C130.335 9.24045 129.625 9.73639 129.279 10.6138C129.056 11.1802 129.006 11.7759 129.009 12.3775V12.3745Z" fill="#019DE1"/>
<path d="M158.299 12.3686C158.313 10.8016 158.762 9.39889 159.836 8.22214C160.47 7.52959 161.271 7.14517 162.172 6.96323C163.155 6.76368 164.144 6.76955 165.13 6.97203C166.439 7.24201 167.454 7.94923 168.091 9.11424C169.356 11.4355 169.315 13.7479 167.88 15.9899C167.228 17.0081 166.239 17.5598 165.074 17.7917C164.103 17.9853 163.123 17.9912 162.152 17.7829C159.998 17.3163 158.921 15.8373 158.442 13.8095C158.331 13.337 158.284 12.8558 158.299 12.3657V12.3686ZM166.084 12.3628C166.104 11.8668 166.037 11.3327 165.873 10.8104C165.532 9.7393 164.769 9.15826 163.675 9.13478C162.571 9.11131 161.779 9.63952 161.409 10.7077C161.016 11.8434 161.025 12.9996 161.436 14.1294C161.741 14.9716 162.342 15.5115 163.27 15.6084C164.194 15.7023 164.998 15.4822 165.532 14.6605C165.975 13.9797 166.096 13.2108 166.084 12.3628Z" fill="#019DE1"/>
<path d="M146.358 12.2601C146.325 12.9174 146.402 13.7244 146.317 14.5314C146.17 15.937 145.442 16.9201 144.145 17.4454C142.637 18.0558 141.052 18.135 139.479 17.8327C137.431 17.4395 136.806 15.7668 137.187 13.9386C137.457 12.6474 138.379 11.9989 139.579 11.6556C140.527 11.3856 141.516 11.3533 142.478 11.1743C142.657 11.1391 142.839 11.0951 143.012 11.0305C143.42 10.8779 143.617 10.6109 143.62 10.2382C143.626 9.79212 143.432 9.46052 143.027 9.31673C142.367 9.08196 141.689 9.05849 141.02 9.2551C140.515 9.40476 140.254 9.80092 140.151 10.2881C140.098 10.5346 139.99 10.5932 139.755 10.5903C139.074 10.5727 138.39 10.5727 137.71 10.5903C137.475 10.5962 137.416 10.5258 137.434 10.2969C137.566 8.74156 138.461 7.59709 139.963 7.18919C141.498 6.76955 143.03 6.82824 144.524 7.39167C145.794 7.87294 146.343 8.71515 146.355 10.1413C146.361 10.7987 146.355 11.456 146.355 12.2601H146.358ZM143.585 13.4133H143.602C143.602 13.2167 143.596 13.023 143.602 12.8264C143.608 12.6592 143.576 12.5858 143.391 12.6856C143.001 12.891 142.569 12.9702 142.138 13.0495C141.607 13.1463 141.067 13.2197 140.571 13.4544C140.022 13.7156 139.781 14.2057 139.852 14.8894C139.908 15.4235 140.222 15.7698 140.782 15.9106C142.094 16.2422 143.455 15.2973 143.582 13.9621C143.599 13.7802 143.582 13.5953 143.582 13.4104L143.585 13.4133Z" fill="#019DE1"/>
<path d="M63.0488 14.6408C63.0488 15.6913 63.0429 16.7419 63.0547 17.7895C63.0547 18.0213 63.0077 18.1123 62.7524 18.1064C62.1068 18.0888 61.4583 18.0888 60.8097 18.1064C60.5515 18.1123 60.5075 18.0155 60.5104 17.7866C60.5192 15.8351 60.5163 13.8866 60.5104 11.9351C60.5104 11.7062 60.5016 11.4715 60.4547 11.2484C60.2551 10.3035 59.6007 9.82226 58.5942 9.8604C57.661 9.89562 56.9361 10.5353 56.8158 11.4421C56.7953 11.6006 56.7924 11.7649 56.7924 11.9263C56.7924 13.8778 56.7865 15.8263 56.7982 17.7778C56.7982 18.0301 56.7454 18.1211 56.4754 18.1123C55.8416 18.0918 55.2048 18.0918 54.568 18.1123C54.2951 18.1211 54.2481 18.0243 54.2511 17.7748C54.2599 15.8028 54.2569 13.8279 54.2569 11.8559C54.2569 11.5419 54.2334 11.2338 54.119 10.9374C53.8109 10.1216 53.0714 9.74009 52.0912 9.88975C51.2461 10.0189 50.6093 10.6967 50.5711 11.5712C50.5389 12.3665 50.5535 13.1618 50.5506 13.9599C50.5506 15.2394 50.5447 16.5218 50.5565 17.8013C50.5565 18.0419 50.4948 18.1182 50.2483 18.1123C49.6028 18.0947 48.9542 18.1006 48.3057 18.1123C48.1061 18.1152 48.021 18.0771 48.021 17.8511C48.0298 15.7618 47.9565 13.6724 48.0416 11.5859C48.2088 7.42474 52.3495 6.48569 54.568 7.85025C54.8761 8.03806 55.1637 8.25228 55.3926 8.53106C55.5188 8.68659 55.598 8.68366 55.733 8.53693C57.0535 7.10194 59.1928 6.95228 60.8097 7.75928C62.1185 8.41368 62.7641 9.54641 62.9666 10.9491C63.1251 12.0613 63.0224 13.1852 63.0458 14.3033C63.0458 14.4177 63.0458 14.5351 63.0458 14.6496L63.0488 14.6408Z" fill="#2D3577"/>
<path d="M110.691 8.83036C110.691 7.82088 110.691 6.92292 110.691 6.02201C110.694 4.97145 111.169 4.37281 112.193 4.1175C112.519 4.03533 112.85 4.01186 113.188 3.99719C113.423 3.98838 113.478 4.07055 113.475 4.29064C113.464 5.10937 113.473 5.92811 113.473 6.74684C113.473 9.0886 113.473 11.4304 113.473 13.7721C113.473 16.2665 111.815 18.0536 109.317 18.2708C108.504 18.3412 107.706 18.303 106.905 18.1504C105.15 17.813 104.044 16.7653 103.568 15.0692C103.07 13.2879 103.184 11.5213 103.927 9.8281C104.886 7.63894 107.005 6.96693 108.862 7.45407C109.614 7.65068 110.186 8.12607 110.694 8.82743L110.691 8.83036ZM106.122 12.8653C106.124 13.5403 106.204 14.2006 106.48 14.8227C106.817 15.5857 107.389 16.0229 108.237 16.0699C109.056 16.1139 109.737 15.8556 110.201 15.1484C110.523 14.6554 110.688 14.1096 110.732 13.5256C110.805 12.5455 110.755 11.583 110.224 10.7173C109.763 9.96603 109.062 9.66084 108.193 9.71953C107.369 9.77528 106.829 10.2213 106.491 10.9491C106.21 11.5565 106.113 12.2021 106.119 12.8683L106.122 12.8653Z" fill="#2D3577"/>
<path d="M70.6812 13.5579C69.5132 13.5579 68.3453 13.5638 67.1803 13.552C66.9309 13.552 66.8751 13.6107 66.9103 13.8631C67.1128 15.4067 68.1281 16.1931 69.7803 16.0699C70.3819 16.0258 70.913 15.8498 71.2828 15.3421C71.3649 15.2276 71.4735 15.2335 71.5909 15.2335C72.4008 15.2335 73.2108 15.2453 74.0178 15.2276C74.3141 15.2218 74.2877 15.3392 74.2026 15.5328C73.7566 16.5599 73.0406 17.3581 72.0281 17.81C70.2175 18.62 68.3923 18.5848 66.6139 17.6809C65.2494 16.9854 64.4717 15.8498 64.2428 14.3473C64.0726 13.2351 64.0756 12.12 64.3426 11.0137C64.862 8.85384 66.655 7.39245 68.8794 7.31908C69.6336 7.29267 70.3789 7.33375 71.1067 7.55384C72.9437 8.10847 74.1968 9.66377 74.4168 11.6651C74.4755 12.1933 74.4785 12.7245 74.4902 13.2527C74.4961 13.4933 74.4315 13.5638 74.185 13.5608C73.0171 13.5491 71.8491 13.555 70.6841 13.555L70.6812 13.5579ZM69.299 11.7532C69.9564 11.7532 70.6166 11.7356 71.271 11.762C71.5792 11.7737 71.6613 11.6739 71.585 11.3951C71.5704 11.3394 71.5616 11.2836 71.5498 11.2279C71.2622 10.101 70.3819 9.52585 69.0467 9.58748C67.9932 9.63736 67.1656 10.4209 67.0013 11.5067C66.969 11.7121 67.0248 11.762 67.2243 11.759C67.9169 11.7502 68.6094 11.7561 69.302 11.7561L69.299 11.7532Z" fill="#2D3577"/>
<path d="M124.938 12.7509C124.944 13.8866 124.712 14.9107 124.195 15.8644C123.497 17.1498 122.443 17.948 120.988 18.2121C119.996 18.3911 119.01 18.3852 118.027 18.1739C116.436 17.8335 115.368 16.8387 114.784 15.3744C113.913 13.1881 114.059 11.0665 115.427 9.09154C116.04 8.20531 116.9 7.66829 117.933 7.41886C119.048 7.14888 120.178 7.14008 121.293 7.42766C123.321 7.95001 124.307 9.42608 124.785 11.3335C124.906 11.8148 124.941 12.3107 124.935 12.7538L124.938 12.7509ZM117.135 12.7685C117.117 13.42 117.188 14.0597 117.455 14.6613C117.854 15.5622 118.555 16.0229 119.544 16.0405C120.548 16.0581 121.305 15.6385 121.695 14.7141C122.232 13.4376 122.232 12.1288 121.689 10.8523C121.299 9.93082 120.539 9.53465 119.559 9.54639C118.59 9.55813 117.883 9.98951 117.472 10.8787C117.196 11.4803 117.12 12.1141 117.135 12.7656V12.7685Z" fill="#2D3577"/>
<path d="M102.457 12.4692C102.457 13.2058 102.486 13.9453 102.451 14.6818C102.372 16.3046 101.515 17.3728 100.001 17.8981C98.5629 18.3969 97.0751 18.4586 95.5873 18.1857C94.1083 17.9157 93.2426 16.8387 93.2103 15.3392C93.1721 13.5784 93.9703 12.5103 95.6753 12.0114C96.5674 11.7502 97.4947 11.7033 98.4044 11.5624C98.6891 11.5184 98.9737 11.4626 99.2378 11.3365C99.5548 11.1809 99.7426 10.9432 99.7367 10.5764C99.7279 10.1891 99.6017 9.85452 99.2261 9.70779C98.5042 9.42901 97.7588 9.39966 97.0252 9.66377C96.5733 9.82811 96.3532 10.2184 96.2622 10.6644C96.2182 10.8845 96.1184 10.9315 95.913 10.9286C95.2087 10.9168 94.5044 10.9168 93.7972 10.9286C93.5918 10.9315 93.5507 10.8669 93.5624 10.6703C93.6387 9.17371 94.5543 7.96468 96.0333 7.55091C97.659 7.09312 99.273 7.17822 100.849 7.82382C101.867 8.24052 102.363 9.01817 102.451 10.0863C102.519 10.8816 102.469 11.6769 102.457 12.4721V12.4692ZM99.7279 12.927C99.1703 13.2527 98.601 13.3349 98.0347 13.4376C97.6033 13.5139 97.1719 13.5902 96.7669 13.7662C96.2211 14.0039 95.9541 14.4295 95.9599 15.0164C95.9629 15.5358 96.136 15.9583 96.6554 16.1843C97.7588 16.6626 99.3317 15.9055 99.6252 14.7434C99.769 14.1683 99.7396 13.5814 99.7308 12.9299L99.7279 12.927Z" fill="#2D3577"/>
<path d="M90.9004 11.3101C90.4955 11.3101 90.0905 11.3042 89.6885 11.313C89.5153 11.3159 89.4273 11.2807 89.3774 11.09C89.1133 10.1186 88.6614 9.73128 87.7223 9.64324C86.7803 9.5552 86.0379 9.93963 85.6447 10.7584C85.1986 11.6857 85.2074 12.6775 85.2896 13.6724C85.3336 14.2064 85.4657 14.717 85.7562 15.1748C86.1846 15.8527 87.0004 16.1579 87.916 16.017C88.7406 15.8879 89.1779 15.3715 89.3216 14.6055C89.3891 14.2475 89.5241 14.1507 89.8763 14.1683C90.5688 14.2006 91.2614 14.1771 91.9569 14.1771C92.397 14.1771 92.4176 14.183 92.3119 14.6085C91.904 16.2782 90.9621 17.5107 89.2864 18.0536C87.8691 18.5114 86.4311 18.4586 85.0343 17.945C83.7754 17.4814 83.0124 16.5159 82.5957 15.2805C82.0616 13.7017 82.0792 12.0994 82.6074 10.5265C83.253 8.59855 84.8171 7.45408 86.8713 7.33376C87.7399 7.28388 88.5968 7.33963 89.4449 7.56559C91.1147 8.01164 92.039 9.10622 92.3207 10.7818C92.3814 11.1379 92.2327 11.3149 91.8747 11.313C91.7133 11.313 91.5519 11.313 91.3905 11.313C91.2291 11.313 91.0677 11.313 90.9063 11.313L90.9004 11.3101Z" fill="#2D3577"/>
<path d="M75.7464 14.7581C75.7875 13.8895 75.6701 12.8155 75.8022 11.7473C76.1044 9.32045 77.7625 7.68004 80.2011 7.38952C80.6618 7.33377 81.1225 7.31323 81.5832 7.31616C81.7593 7.31616 81.8297 7.36898 81.8268 7.55386C81.8209 8.33738 81.8209 9.12383 81.8268 9.90735C81.8268 10.0717 81.7857 10.1245 81.6096 10.1157C81.2399 10.0981 80.8672 10.0746 80.5033 10.1216C79.2151 10.2859 78.5577 11.0401 78.5313 12.4457C78.499 14.1888 78.5078 15.929 78.5225 17.6721C78.5225 18.0067 78.4667 18.1328 78.097 18.1123C77.4162 18.0771 76.7324 18.0918 76.0516 18.1064C75.8139 18.1123 75.7347 18.0477 75.7406 17.8012C75.7552 16.8563 75.7464 15.9085 75.7464 14.7581Z" fill="#2D3577"/>
<path d="M19.0834 0C19.1256 0.0927301 19.212 0.054795 19.2794 0.0590101C21.3911 0.200213 23.4565 0.581671 25.4628 1.25607C27.8211 2.04849 29.9961 3.17601 31.8317 4.88097C33.2964 6.24031 34.4429 7.82515 34.8138 9.81885C35.406 12.9885 34.759 15.8906 32.6852 18.4175C31.1678 20.2678 29.2247 21.5366 27.0392 22.4575C25.0224 23.3069 22.9149 23.7979 20.7399 24.0297C19.4101 24.1709 18.0781 24.2426 16.742 24.2026C13.4796 24.1056 10.3099 23.5661 7.32778 22.1772C5.07276 21.1256 3.12121 19.6883 1.69654 17.6145C0.864076 16.4027 0.32034 15.0729 0.0821926 13.6187C0.0695476 13.5386 0.107483 13.429 0 13.3784V10.3457C0.0864076 10.3183 0.0632251 10.2361 0.0737626 10.1771C0.434145 8.13074 1.49633 6.47214 2.96315 5.04957C4.51638 3.54693 6.35201 2.48264 8.34782 1.68389C10.6787 0.752378 13.1023 0.24447 15.6018 0.0632251C15.684 0.0569026 15.7894 0.107483 15.8463 0H19.0834ZM17.6482 22.1815C18.0465 22.1646 18.6029 22.1815 19.1572 22.1414C20.1751 22.0698 21.1846 21.9538 22.1857 21.7684C23.918 21.4459 25.5998 20.9549 27.2057 20.2194C29.3132 19.2562 31.2016 18.0044 32.6326 16.1435C33.7622 14.6724 34.386 13.0286 34.3333 11.1529C34.327 10.9443 34.2427 10.9105 34.0741 10.9527C33.7685 11.0307 33.465 11.1108 33.1594 11.1866C31.2606 11.665 29.3975 12.2509 27.5809 12.9801C27.3933 13.0539 27.3743 13.1192 27.446 13.2983C27.7495 14.0697 27.4945 14.8031 26.7969 15.2583C26.4744 15.4691 26.1246 15.5913 25.741 15.5576C25.486 15.5344 25.387 15.6229 25.3701 15.8653C25.3532 16.1119 25.2331 16.3268 25.0835 16.5165C24.6451 17.0771 24.0656 17.3468 23.3511 17.311C23.1931 17.3026 23.1024 17.3342 23.0392 17.507C22.7652 18.251 21.8695 18.742 21.0708 18.6092C20.9507 18.5903 20.8179 18.5544 20.7273 18.6788C20.3964 19.1256 19.9054 19.2141 19.4038 19.2373C18.8643 19.2605 18.3563 19.1066 17.8758 18.8643C17.7473 18.7989 17.6356 18.7547 17.4902 18.8706C16.4764 19.6904 15.1108 19.4375 14.4364 18.3079C14.3626 18.1856 14.2994 18.1351 14.1434 18.1667C13.4416 18.31 12.5734 17.9264 12.2193 17.3047C12.1245 17.1382 12.0254 17.0918 11.8484 17.1066C10.9569 17.1846 10.1308 16.5291 9.90526 15.8063C9.83782 15.5913 9.73666 15.5534 9.53645 15.5534C9.03486 15.5534 8.60493 15.3763 8.2593 14.997C7.84412 14.5397 7.73242 14.0149 7.87363 13.4311C7.91999 13.2372 7.8673 13.134 7.70081 13.0349C7.08542 12.6703 6.43631 12.3795 5.76613 12.1308C4.19393 11.547 2.56694 11.1571 0.935731 10.7883C0.699691 10.7356 0.661756 10.8789 0.657541 11.0475C0.649111 11.3868 0.657541 11.724 0.687046 12.0633C0.809281 13.4712 1.33405 14.7251 2.13911 15.8653C2.99476 17.075 4.08645 18.0465 5.31723 18.8643C7.25191 20.1498 9.37838 20.9907 11.6292 21.5176C13.5533 21.9686 15.5091 22.2025 17.6461 22.1772L17.6482 22.1815ZM13.1571 5.86307C13.1487 5.84832 13.1403 5.83357 13.134 5.81881C12.8305 5.8989 12.5207 5.96212 12.2235 6.06118C11.2203 6.39416 10.2087 6.41102 9.18028 6.19395C7.60176 5.86096 6.06961 5.37834 4.57328 4.78824C4.40046 4.7208 4.28666 4.73766 4.15599 4.86201C3.94103 5.06854 3.70499 5.254 3.49002 5.46054C2.27399 6.62809 1.33616 7.96846 0.895688 9.61864C0.829653 9.86873 0.923788 10.0289 1.17809 10.0991C2.46367 10.4511 3.77454 10.7124 5.03693 11.1466C6.14337 11.528 7.24348 11.9158 8.22347 12.5755C8.35625 12.664 8.40261 12.5628 8.47005 12.5101C9.16342 11.9854 10.076 12.0296 10.6935 12.6366C10.8094 12.7504 10.8852 12.7525 11.0222 12.6745C11.8821 12.1898 13.0201 12.4406 13.5681 13.2372C13.6545 13.3637 13.7262 13.3595 13.8505 13.3278C14.6261 13.134 15.5154 13.4964 15.899 14.154C16.0718 14.449 16.1371 14.7715 16.1371 15.1066C16.1371 15.2752 16.1561 15.3637 16.3605 15.3532C16.5755 15.3426 16.7863 15.4143 16.9865 15.4986C17.9559 15.9116 18.4322 16.9759 18.0908 17.9939C18.0381 18.1498 18.0529 18.2257 18.2109 18.291C18.4406 18.3858 18.6704 18.4807 18.9127 18.5334C19.3026 18.6177 19.6862 18.6008 20.0466 18.4027C20.2152 18.31 20.27 18.2109 20.1077 18.0423C19.6967 17.6103 19.3005 17.1635 18.9001 16.7209C18.7884 16.5966 18.6092 16.4491 18.7715 16.2783C18.9359 16.1055 19.0919 16.2826 19.2204 16.3879C19.6946 16.7799 20.1351 17.2056 20.5671 17.6419C20.9338 18.0128 21.3406 18.0866 21.8316 17.88C22.4175 17.6335 22.5292 17.1466 22.1119 16.6767C21.6272 16.1329 21.1382 15.5913 20.6556 15.0433C20.5439 14.9169 20.3247 14.7757 20.5123 14.5902C20.683 14.4195 20.8495 14.5966 20.9823 14.7125C21.5977 15.2415 22.173 15.8168 22.7505 16.3879C23.1762 16.8094 23.9265 16.7504 24.4323 16.2552C24.858 15.84 24.8285 15.351 24.348 14.8705C23.6567 14.1772 22.9654 13.4859 22.2784 12.7904C22.1625 12.6724 21.9707 12.5333 22.133 12.3542C22.3037 12.1666 22.4596 12.3457 22.6009 12.4532C22.6135 12.4638 22.6261 12.4743 22.6388 12.4869C23.4249 13.1887 24.2152 13.8842 24.9929 14.5923C25.2816 14.8558 25.6061 14.9422 25.9771 14.8811C26.7948 14.7441 27.1509 13.9812 26.6873 13.3552C26.6051 13.2435 26.4913 13.1529 26.3859 13.0602C24.6704 11.5828 22.9612 10.1013 21.2373 8.63444C20.6198 8.10967 20.0149 7.56172 19.3068 7.15075C18.9169 6.92525 18.5018 6.80302 18.0444 6.86624C17.5197 6.9379 17.0687 7.1908 16.6493 7.48795C16.0802 7.89049 15.5302 8.3162 14.9738 8.7356C13.9791 9.48376 12.9084 9.53012 11.8104 9.02432C11.1171 8.70609 11.037 8.15182 11.5533 7.59544C12.0886 7.02009 12.6218 6.44474 13.155 5.86729L13.1571 5.86307ZM18.6219 4.2698C16.7968 4.2698 15.488 4.68919 14.3753 5.66918C13.5576 6.38995 12.8494 7.21187 12.1034 8.00008C11.8505 8.26773 11.8652 8.36889 12.2172 8.50588C12.8305 8.74403 13.4522 8.75246 14.0549 8.48059C14.5207 8.27194 14.9064 7.93896 15.3026 7.62494C15.7957 7.23295 16.2805 6.82831 16.8347 6.52061C17.7747 5.99374 18.7188 5.93262 19.6567 6.53326C20.1604 6.8557 20.6261 7.22662 21.0856 7.60808C22.9802 9.18028 24.8369 10.7967 26.6936 12.4132C26.8053 12.5101 26.8917 12.5396 27.0414 12.4764C29.2584 11.5112 31.5514 10.7778 33.9055 10.2382C34.2322 10.1624 34.2364 10.1624 34.1584 9.84414C33.6737 7.8673 32.5209 6.32672 31.0119 5.01375C30.9381 4.94841 30.8812 4.94841 30.7927 4.98635C30.466 5.12755 30.1394 5.26665 29.8064 5.39099C27.0624 6.40259 24.3564 6.35833 21.6883 5.10226C20.6072 4.59225 19.467 4.28455 18.6219 4.26769V4.2698ZM30.3185 4.44472C29.9813 4.21922 29.6884 4.01901 29.3933 3.82722C28.289 3.11067 27.1088 2.55008 25.8738 2.10329C24.603 1.64385 23.3005 1.30033 21.9644 1.0685C20.9254 0.889366 19.8843 0.754486 18.8347 0.710228C17.153 0.638573 15.4712 0.687046 13.7999 0.939946C12.4869 1.13805 11.1929 1.41203 9.93055 1.81667C8.42579 2.29928 6.99691 2.95472 5.64811 3.78086C5.43525 3.91152 5.23714 4.06537 5.0011 4.22976C5.16127 4.29509 5.26454 4.34145 5.37413 4.37939C6.71029 4.85358 8.06962 5.24557 9.45215 5.55327C10.2003 5.71976 10.94 5.70712 11.6882 5.49637C12.3563 5.3088 13.018 5.0854 13.7219 5.05168C13.9137 5.04325 14.1055 5.01585 14.2783 4.87887C15.3763 4.00425 16.6514 3.62701 18.0381 3.58697C19.4354 3.54482 20.7441 3.90942 21.9981 4.49319C23.1214 5.01585 24.2953 5.34041 25.5345 5.41417C26.5271 5.47318 27.5029 5.35727 28.4618 5.09805C29.0772 4.93155 29.6821 4.73556 30.3248 4.44472H30.3185ZM10.6345 13.977C10.5628 13.8758 10.5797 13.7725 10.5628 13.6798C10.4743 13.2119 10.1413 12.8895 9.66079 12.8094C9.23718 12.7398 8.79671 12.9632 8.57964 13.3573C8.36889 13.743 8.4279 14.2151 8.73138 14.5565C9.11705 14.9928 9.70083 15.0307 10.2066 14.6556C10.2551 14.6197 10.2909 14.5375 10.3731 14.586C10.4427 14.6282 10.468 14.6977 10.4553 14.7799C10.449 14.82 10.4363 14.8621 10.4342 14.9021C10.3963 15.4501 10.5523 15.9201 11.0243 16.2425C11.4648 16.5418 11.9116 16.565 12.3668 16.2552C12.5523 16.1287 12.6598 16.2004 12.645 16.4301C12.6134 16.9253 12.8874 17.2141 13.2941 17.4164C13.6988 17.6166 14.0886 17.625 14.449 17.3089C14.527 17.2394 14.6071 17.1319 14.7251 17.1782C14.8537 17.2288 14.8347 17.3679 14.8452 17.4817C14.9021 18.0739 15.3468 18.565 15.9348 18.6851C16.5165 18.8031 17.134 18.5018 17.4164 17.9601C17.6946 17.4269 17.5871 16.782 17.1403 16.3669C16.702 15.9601 16.2025 15.8779 15.6461 16.1034C15.5618 16.1371 15.4543 16.2004 15.37 16.1013C15.3005 16.0212 15.3447 15.9264 15.3721 15.8421C15.4375 15.6524 15.4901 15.4606 15.5028 15.2625C15.5344 14.7778 15.4269 14.3479 14.9569 14.1055C14.4617 13.8484 13.9727 13.8252 13.5259 14.2214C13.4627 14.2783 13.3995 14.3331 13.3068 14.291C13.2246 14.253 13.2288 14.1751 13.2183 14.0992C13.1656 13.7177 13.0054 13.3974 12.6387 13.2309C12.1877 13.0244 11.7388 13.037 11.3025 13.2836C11.0159 13.448 10.8094 13.6903 10.6366 13.977H10.6345Z" fill="#2D3577"/>
<path d="M17.6479 22.1815C15.5109 22.2067 13.5573 21.9728 11.631 21.5218C9.38019 20.9949 7.25372 20.154 5.31904 18.8685C4.08825 18.0507 2.99657 17.0813 2.14092 15.8695C1.33375 14.7293 0.811088 13.4754 0.688853 12.0675C0.659348 11.7282 0.650918 11.391 0.659348 11.0517C0.663563 10.8831 0.701498 10.7377 0.937539 10.7925C2.56875 11.1613 4.19574 11.5512 5.76793 12.135C6.43812 12.3837 7.08512 12.6745 7.70262 13.0391C7.86911 13.1382 7.9218 13.2393 7.87543 13.4353C7.73423 14.0191 7.84593 14.5439 8.26111 15.0012C8.60674 15.3805 9.03667 15.5597 9.53825 15.5576C9.73636 15.5576 9.83963 15.5934 9.90707 15.8105C10.1326 16.5312 10.9566 17.1888 11.8502 17.1108C12.0272 17.096 12.1263 17.1424 12.2211 17.3089C12.5731 17.9306 13.4413 18.3142 14.1453 18.1709C14.3012 18.1393 14.3644 18.1898 14.4382 18.3121C15.1126 19.4396 16.4783 19.6925 17.492 18.8748C17.6353 18.7589 17.747 18.8031 17.8776 18.8685C18.3582 19.1108 18.8661 19.2647 19.4056 19.2415C19.9072 19.2204 20.3982 19.1298 20.7291 18.683C20.8218 18.5587 20.9525 18.5924 21.0726 18.6135C21.8692 18.7441 22.767 18.2531 23.041 17.5112C23.1042 17.3384 23.1949 17.3068 23.3529 17.3152C24.0674 17.3511 24.6469 17.0813 25.0853 16.5207C25.2349 16.331 25.3551 16.1182 25.3719 15.8695C25.3888 15.6271 25.4857 15.5365 25.7428 15.5618C26.1264 15.5976 26.4762 15.4733 26.7987 15.2625C27.4984 14.8073 27.7513 14.0739 27.4478 13.3025C27.3762 13.1234 27.3972 13.0602 27.5827 12.9843C29.4015 12.2572 31.2645 11.6713 33.1612 11.1908C33.4668 11.1128 33.7703 11.0328 34.0759 10.9569C34.2445 10.9147 34.3309 10.9485 34.3351 11.1571C34.3878 13.0328 33.764 14.6766 32.6344 16.1477C31.2055 18.0086 29.3151 19.2605 27.2076 20.2236C25.6016 20.957 23.9198 21.4501 22.1875 21.7726C21.1864 21.9581 20.1769 22.0761 19.159 22.1456C18.6026 22.1836 18.0483 22.1688 17.65 22.1857L17.6479 22.1815Z" fill="#019DE1"/>
<path d="M30.3184 4.44472C29.6756 4.73555 29.0707 4.93155 28.4553 5.09805C27.4964 5.35727 26.5207 5.47318 25.528 5.41417C24.2909 5.34041 23.117 5.01585 21.9916 4.49319C20.7377 3.90941 19.4289 3.54482 18.0316 3.58697C16.6449 3.62912 15.3699 4.00425 14.2719 4.87886C14.099 5.01585 13.9094 5.04325 13.7155 5.05168C13.0116 5.0854 12.3498 5.3088 11.6817 5.49636C10.9357 5.70501 10.1938 5.71976 9.44567 5.55327C8.06315 5.24346 6.70381 4.85147 5.36766 4.37939C5.26017 4.34145 5.1548 4.29298 4.99463 4.22975C5.23067 4.06537 5.42877 3.91152 5.64163 3.78086C6.99043 2.95472 8.41932 2.29928 9.92408 1.81666C11.1865 1.41202 12.4826 1.13805 13.7935 0.939944C15.4647 0.687044 17.1465 0.638571 18.8283 0.710226C19.8757 0.754484 20.9189 0.889364 21.9579 1.0685C23.2941 1.29822 24.5965 1.64385 25.8673 2.10328C27.1023 2.55008 28.2825 3.11067 29.3869 3.82722C29.684 4.019 29.9748 4.21922 30.312 4.44472H30.3184Z" fill="#019DE1"/>
</svg>
