<svg width="62" height="63" viewBox="0 0 62 63" fill="none" xmlns="http://www.w3.org/2000/svg">
<circle cx="31" cy="31" r="30" stroke="#00A650" stroke-width="2"/>
<path fill-rule="evenodd" clip-rule="evenodd" d="M53 62C48.0375 62 44 57.9625 44 53C44 48.0375 48.0375 44 53 44C57.9625 44 62 48.0375 62 53C62 57.9625 57.9625 62 53 62Z" fill="#00A650"/>
<path d="M49 53.2807L51.8182 56L57 51" stroke="white" stroke-width="1.5" stroke-linecap="round"/>
<path d="M24.1128 41.189C22.8528 41.189 21.7188 40.973 20.7108 40.541C19.7028 40.091 18.9108 39.461 18.3348 38.651C17.7588 37.841 17.4708 36.896 17.4708 35.816H20.7648C20.8368 36.626 21.1518 37.292 21.7098 37.814C22.2858 38.336 23.0868 38.597 24.1128 38.597C25.1748 38.597 26.0028 38.345 26.5968 37.841C27.1908 37.319 27.4878 36.653 27.4878 35.843C27.4878 35.213 27.2988 34.7 26.9208 34.304C26.5608 33.908 26.1018 33.602 25.5438 33.386C25.0038 33.17 24.2478 32.936 23.2758 32.684C22.0518 32.36 21.0528 32.036 20.2788 31.712C19.5228 31.37 18.8748 30.848 18.3348 30.146C17.7948 29.444 17.5248 28.508 17.5248 27.338C17.5248 26.258 17.7948 25.313 18.3348 24.503C18.8748 23.693 19.6308 23.072 20.6028 22.64C21.5748 22.208 22.6998 21.992 23.9778 21.992C25.7958 21.992 27.2808 22.451 28.4328 23.369C29.6028 24.269 30.2508 25.511 30.3768 27.095H26.9748C26.9208 26.411 26.5968 25.826 26.0028 25.34C25.4088 24.854 24.6258 24.611 23.6538 24.611C22.7718 24.611 22.0518 24.836 21.4938 25.286C20.9358 25.736 20.6568 26.384 20.6568 27.23C20.6568 27.806 20.8278 28.283 21.1698 28.661C21.5298 29.021 21.9798 29.309 22.5198 29.525C23.0598 29.741 23.7978 29.975 24.7338 30.227C25.9758 30.569 26.9838 30.911 27.7578 31.253C28.5498 31.595 29.2158 32.126 29.7558 32.846C30.3138 33.548 30.5928 34.493 30.5928 35.681C30.5928 36.635 30.3318 37.535 29.8098 38.381C29.3058 39.227 28.5588 39.911 27.5688 40.433C26.5968 40.937 25.4448 41.189 24.1128 41.189ZM45.2677 22.235V24.746H37.3027V30.281H43.5127V32.792H37.3027V41H34.2247V22.235H45.2677Z" fill="#00A650"/>
</svg>
