<svg width="29" height="29" viewBox="0 0 29 29" fill="none" xmlns="http://www.w3.org/2000/svg">
<circle cx="14.5" cy="14.5" r="14.5" fill="#F6F6F6"/>
<path d="M8 11L7.5 11.5L7 12L6.5 13.5L8 14.5L9.5 15.5L11.5 17.5L15 18L18 17.5L20.5 16.5L23 14V13L22 11.5L21 10.5H19L15 9.5L10 10.5H8.5L8 11Z" fill="white"/>
<path d="M15.5309 8.41211C15.5511 8.45649 15.5924 8.43833 15.6247 8.44035C16.6353 8.50792 17.6237 8.69048 18.5839 9.01322C19.7125 9.39245 20.7533 9.93204 21.6318 10.748C22.3328 11.3985 22.8815 12.157 23.059 13.1111C23.3424 14.628 23.0327 16.0168 22.0403 17.2261C21.3141 18.1116 20.3842 18.7188 19.3383 19.1596C18.3731 19.566 17.3645 19.801 16.3236 19.912C15.6872 19.9795 15.0498 20.0138 14.4104 19.9947C12.8491 19.9483 11.3322 19.6901 9.90503 19.0254C8.82585 18.5221 7.8919 17.8343 7.2101 16.8418C6.81171 16.2619 6.5515 15.6255 6.43753 14.9296C6.43148 14.8912 6.44963 14.8388 6.39819 14.8146V13.3632C6.43955 13.3501 6.42845 13.3108 6.43349 13.2826C6.60596 12.3032 7.11429 11.5095 7.81626 10.8287C8.55958 10.1096 9.43806 9.60022 10.3932 9.21797C11.5087 8.77217 12.6685 8.5291 13.8647 8.44237C13.9041 8.43934 13.9545 8.46355 13.9817 8.41211H15.5309ZM14.8441 19.0274C15.0347 19.0194 15.3009 19.0274 15.5662 19.0083C16.0533 18.974 16.5365 18.9185 17.0155 18.8298C17.8446 18.6754 18.6494 18.4404 19.418 18.0884C20.4266 17.6275 21.3303 17.0284 22.0151 16.1378C22.5557 15.4339 22.8542 14.6472 22.829 13.7495C22.826 13.6497 22.7856 13.6335 22.7049 13.6537C22.5587 13.691 22.4135 13.7294 22.2672 13.7657C21.3585 13.9946 20.4669 14.275 19.5975 14.624C19.5077 14.6593 19.4987 14.6905 19.533 14.7763C19.6782 15.1454 19.5562 15.4964 19.2223 15.7142C19.068 15.8151 18.9006 15.8736 18.717 15.8575C18.595 15.8464 18.5476 15.8887 18.5395 16.0047C18.5314 16.1227 18.4739 16.2256 18.4023 16.3164C18.1926 16.5846 17.9152 16.7137 17.5733 16.6966C17.4976 16.6926 17.4543 16.7077 17.424 16.7904C17.2929 17.1464 16.8642 17.3814 16.482 17.3179C16.4245 17.3088 16.361 17.2917 16.3176 17.3512C16.1593 17.565 15.9243 17.6074 15.6842 17.6184C15.426 17.6295 15.1829 17.5559 14.953 17.4399C14.8915 17.4087 14.838 17.3875 14.7684 17.443C14.2833 17.8353 13.6297 17.7143 13.307 17.1737C13.2717 17.1152 13.2414 17.091 13.1668 17.1061C12.8309 17.1747 12.4154 16.9911 12.246 16.6936C12.2006 16.6139 12.1532 16.5917 12.0684 16.5988C11.6418 16.6361 11.2464 16.3224 11.1385 15.9765C11.1063 15.8736 11.0578 15.8554 10.962 15.8554C10.722 15.8554 10.5162 15.7707 10.3508 15.5892C10.1521 15.3703 10.0987 15.1192 10.1663 14.8398C10.1884 14.747 10.1632 14.6976 10.0836 14.6502C9.78905 14.4757 9.4784 14.3365 9.15767 14.2175C8.40527 13.9381 7.62665 13.7515 6.846 13.575C6.73304 13.5498 6.71489 13.6184 6.71287 13.6991C6.70884 13.8615 6.71287 14.0229 6.72699 14.1852C6.78549 14.859 7.03663 15.4591 7.4219 16.0047C7.83139 16.5836 8.35383 17.0486 8.94285 17.4399C9.86872 18.0552 10.8864 18.4576 11.9635 18.7097C12.8844 18.9256 13.8203 19.0375 14.8431 19.0254L14.8441 19.0274ZM12.6948 11.218C12.6907 11.2109 12.6867 11.2039 12.6837 11.1968C12.5384 11.2351 12.3902 11.2654 12.248 11.3128C11.7679 11.4721 11.2838 11.4802 10.7916 11.3763C10.0361 11.217 9.30291 10.986 8.58682 10.7036C8.50411 10.6713 8.44965 10.6794 8.38712 10.7389C8.28424 10.8377 8.17128 10.9265 8.06841 11.0253C7.48645 11.5841 7.03763 12.2256 6.82684 13.0153C6.79524 13.135 6.84029 13.2116 6.96199 13.2452C7.57723 13.4137 8.20456 13.5387 8.8087 13.7465C9.33821 13.9291 9.86469 14.1146 10.3337 14.4303C10.3972 14.4727 10.4194 14.4243 10.4517 14.3991C10.7835 14.1479 11.2202 14.1691 11.5157 14.4596C11.5712 14.514 11.6075 14.515 11.6731 14.4777C12.0846 14.2457 12.6292 14.3658 12.8914 14.747C12.9328 14.8075 12.9671 14.8055 13.0266 14.7904C13.3978 14.6976 13.8234 14.8711 14.0069 15.1857C14.0896 15.3269 14.1209 15.4813 14.1209 15.6416C14.1209 15.7223 14.13 15.7647 14.2278 15.7596C14.3307 15.7546 14.4315 15.7889 14.5274 15.8292C14.9913 16.0269 15.2193 16.5362 15.0559 17.0234C15.0306 17.098 15.0377 17.1343 15.1133 17.1656C15.2233 17.211 15.3332 17.2564 15.4492 17.2816C15.6358 17.3219 15.8194 17.3139 15.9918 17.219C16.0725 17.1747 16.0987 17.1273 16.0211 17.0466C15.8244 16.8398 15.6348 16.626 15.4432 16.4142C15.3897 16.3547 15.304 16.2841 15.3816 16.2024C15.4603 16.1197 15.5349 16.2044 15.5965 16.2548C15.8234 16.4424 16.0342 16.6462 16.2409 16.8549C16.4164 17.0325 16.6111 17.0678 16.8461 16.9689C17.1265 16.8509 17.1799 16.6179 16.9802 16.393C16.7483 16.1328 16.5143 15.8736 16.2833 15.6114C16.2299 15.5509 16.125 15.4833 16.2147 15.3945C16.2964 15.3128 16.3761 15.3975 16.4396 15.453C16.7341 15.7062 17.0095 15.9815 17.2858 16.2548C17.4896 16.4566 17.8486 16.4283 18.0907 16.1913C18.2944 15.9926 18.2803 15.7586 18.0503 15.5287C17.7195 15.1968 17.3887 14.866 17.0599 14.5332C17.0044 14.4767 16.9127 14.4101 16.9903 14.3244C17.072 14.2347 17.1467 14.3204 17.2142 14.3718C17.2203 14.3769 17.2263 14.3819 17.2324 14.388C17.6086 14.7238 17.9868 15.0566 18.359 15.3955C18.4971 15.5216 18.6525 15.563 18.83 15.5337C19.2213 15.4681 19.3918 15.103 19.1699 14.8035C19.1305 14.75 19.0761 14.7067 19.0256 14.6623C18.2047 13.9553 17.3867 13.2462 16.5617 12.5443C16.2662 12.2931 15.9767 12.0309 15.6378 11.8342C15.4512 11.7263 15.2525 11.6678 15.0337 11.6981C14.7825 11.7324 14.5667 11.8534 14.366 11.9956C14.0937 12.1882 13.8304 12.392 13.5642 12.5927C13.0881 12.9507 12.5758 12.9729 12.0503 12.7309C11.7185 12.5786 11.6801 12.3133 11.9272 12.047C12.1834 11.7717 12.4386 11.4964 12.6938 11.22L12.6948 11.218ZM15.31 10.4555C14.4366 10.4555 13.8103 10.6562 13.2777 11.1252C12.8864 11.4701 12.5475 11.8635 12.1905 12.2407C12.0695 12.3688 12.0765 12.4172 12.2449 12.4827C12.5384 12.5967 12.836 12.6008 13.1244 12.4706C13.3473 12.3708 13.5319 12.2114 13.7215 12.0612C13.9575 11.8736 14.1895 11.6799 14.4547 11.5327C14.9046 11.2805 15.3564 11.2513 15.8052 11.5387C16.0463 11.693 16.2692 11.8705 16.4891 12.0531C17.3958 12.8055 18.2843 13.5791 19.1729 14.3527C19.2263 14.3991 19.2677 14.4132 19.3393 14.3829C20.4003 13.921 21.4977 13.57 22.6243 13.3118C22.7806 13.2755 22.7826 13.2755 22.7453 13.1232C22.5133 12.1771 21.9616 11.4399 21.2395 10.8115C21.2042 10.7803 21.1769 10.7803 21.1346 10.7984C20.9783 10.866 20.8219 10.9326 20.6626 10.9921C19.3494 11.4762 18.0544 11.455 16.7775 10.8539C16.2601 10.6098 15.7145 10.4626 15.31 10.4545V10.4555ZM20.9077 10.5392C20.7463 10.4313 20.6061 10.3355 20.4649 10.2437C19.9364 9.90078 19.3716 9.63249 18.7806 9.41867C18.1724 9.1988 17.5491 9.0344 16.9096 8.92346C16.4124 8.83773 15.9142 8.77318 15.4119 8.752C14.607 8.71771 13.8022 8.74091 13.0024 8.86194C12.374 8.95674 11.7548 9.08786 11.1506 9.28151C10.4305 9.51247 9.74669 9.82614 9.10119 10.2215C8.99933 10.284 8.90452 10.3577 8.79156 10.4363C8.86821 10.4676 8.91763 10.4898 8.97008 10.5079C9.60952 10.7349 10.2601 10.9225 10.9217 11.0697C11.2797 11.1494 11.6337 11.1433 11.9918 11.0425C12.3115 10.9527 12.6282 10.8458 12.9651 10.8297C13.0569 10.8256 13.1486 10.8125 13.2313 10.747C13.7568 10.3284 14.367 10.1479 15.0306 10.1287C15.6993 10.1085 16.3257 10.283 16.9258 10.5624C17.4633 10.8125 18.0251 10.9679 18.6182 11.0032C19.0932 11.0314 19.5602 10.9759 20.0191 10.8519C20.3136 10.7722 20.6031 10.6784 20.9107 10.5392H20.9077ZM11.4875 15.101C11.4532 15.0526 11.4613 15.0032 11.4532 14.9588C11.4108 14.7349 11.2515 14.5806 11.0215 14.5423C10.8188 14.509 10.608 14.6159 10.5041 14.8045C10.4033 14.9891 10.4315 15.215 10.5767 15.3784C10.7613 15.5872 11.0407 15.6053 11.2828 15.4258C11.306 15.4086 11.3231 15.3693 11.3624 15.3925C11.3957 15.4127 11.4078 15.446 11.4018 15.4853C11.3987 15.5045 11.3927 15.5246 11.3917 15.5438C11.3735 15.806 11.4482 16.0309 11.6741 16.1853C11.8849 16.3285 12.0987 16.3396 12.3166 16.1913C12.4053 16.1308 12.4567 16.1651 12.4497 16.275C12.4346 16.512 12.5657 16.6502 12.7603 16.747C12.954 16.8428 13.1406 16.8469 13.313 16.6956C13.3503 16.6623 13.3887 16.6109 13.4452 16.6331C13.5067 16.6573 13.4976 16.7238 13.5026 16.7783C13.5299 17.0617 13.7427 17.2967 14.0241 17.3542C14.3025 17.4107 14.598 17.2665 14.7331 17.0072C14.8662 16.7521 14.8148 16.4434 14.601 16.2448C14.3912 16.0501 14.1522 16.0108 13.8859 16.1187C13.8456 16.1348 13.7941 16.1651 13.7538 16.1177C13.7205 16.0793 13.7417 16.034 13.7548 15.9936C13.7861 15.9028 13.8113 15.8111 13.8173 15.7163C13.8325 15.4843 13.781 15.2785 13.5561 15.1625C13.3191 15.0395 13.0851 15.0284 12.8713 15.218C12.841 15.2453 12.8108 15.2715 12.7664 15.2513C12.727 15.2331 12.7291 15.1958 12.724 15.1595C12.6988 14.977 12.6222 14.8237 12.4467 14.744C12.2308 14.6451 12.016 14.6512 11.8072 14.7692C11.6701 14.8479 11.5712 14.9639 11.4885 15.101H11.4875Z" fill="#2D3577"/>
<path d="M14.8438 19.0274C13.8211 19.0395 12.8862 18.9276 11.9643 18.7117C10.8872 18.4596 9.86949 18.0572 8.94362 17.4419C8.3546 17.0506 7.83216 16.5866 7.42267 16.0067C7.03639 15.4611 6.78626 14.861 6.72776 14.1872C6.71364 14.0248 6.70961 13.8635 6.71364 13.7011C6.71566 13.6204 6.73381 13.5508 6.84677 13.577C7.62742 13.7535 8.40604 13.9401 9.15844 14.2195C9.47917 14.3385 9.78881 14.4777 10.0843 14.6522C10.164 14.6996 10.1892 14.748 10.167 14.8418C10.0995 15.1212 10.1529 15.3723 10.3516 15.5912C10.517 15.7727 10.7228 15.8584 10.9628 15.8574C11.0576 15.8574 11.107 15.8746 11.1393 15.9785C11.2472 16.3234 11.6416 16.6381 12.0692 16.6008C12.1539 16.5937 12.2013 16.6159 12.2467 16.6956C12.4152 16.9931 12.8307 17.1767 13.1676 17.1081C13.2422 17.093 13.2725 17.1172 13.3078 17.1757C13.6305 17.7152 14.2841 17.8363 14.7692 17.4449C14.8378 17.3895 14.8912 17.4107 14.9538 17.4419C15.1837 17.5579 15.4268 17.6315 15.685 17.6204C15.925 17.6104 16.16 17.567 16.3184 17.3532C16.3627 17.2937 16.4253 17.3098 16.4828 17.3199C16.864 17.3824 17.2937 17.1474 17.4248 16.7924C17.455 16.7097 17.4984 16.6946 17.5741 16.6986C17.916 16.7157 18.1933 16.5866 18.4031 16.3184C18.4747 16.2276 18.5322 16.1257 18.5403 16.0067C18.5483 15.8907 18.5947 15.8474 18.7178 15.8595C18.9013 15.8766 19.0688 15.8171 19.2231 15.7162C19.5579 15.4984 19.679 15.1474 19.5337 14.7783C19.4994 14.6925 19.5095 14.6623 19.5983 14.626C20.4687 14.278 21.3603 13.9976 22.268 13.7677C22.4142 13.7303 22.5595 13.692 22.7057 13.6557C22.7864 13.6355 22.8278 13.6517 22.8298 13.7515C22.855 14.6492 22.5565 15.4359 22.0159 16.1398C21.332 17.0304 20.4273 17.6295 19.4188 18.0904C18.6502 18.4414 17.8454 18.6774 17.0163 18.8317C16.5372 18.9205 16.0541 18.977 15.567 19.0103C15.3007 19.0284 15.0355 19.0214 14.8448 19.0294L14.8438 19.0274Z" fill="#019DE1"/>
<path d="M20.9077 10.5393C20.6001 10.6785 20.3106 10.7723 20.0161 10.8519C19.5572 10.976 19.0902 11.0315 18.6152 11.0032C18.0232 10.9679 17.4614 10.8126 16.9228 10.5625C16.3227 10.2831 15.6964 10.1086 15.0277 10.1288C14.364 10.149 13.7538 10.3285 13.2284 10.7471C13.1456 10.8126 13.0549 10.8257 12.9621 10.8298C12.6252 10.8459 12.3085 10.9528 11.9888 11.0426C11.6318 11.1424 11.2767 11.1495 10.9187 11.0698C10.2571 10.9215 9.60653 10.7339 8.96709 10.508C8.91566 10.4899 8.86523 10.4667 8.78857 10.4364C8.90154 10.3577 8.99634 10.2841 9.09821 10.2216C9.7437 9.82622 10.4275 9.51255 11.1476 9.28159C11.7518 9.08794 12.3721 8.95682 12.9994 8.86202C13.7992 8.74099 14.6041 8.71779 15.4089 8.75208C15.9102 8.77326 16.4094 8.83781 16.9067 8.92354C17.5461 9.03348 18.1694 9.19888 18.7776 9.41875C19.3686 9.63257 19.9334 9.90086 20.4619 10.2438C20.6041 10.3356 20.7433 10.4314 20.9047 10.5393H20.9077Z" fill="#019DE1"/>
</svg>
