<svg width="24" height="24" viewBox="0 0 87 87" fill="none" xmlns="http://www.w3.org/2000/svg">
<path d="M14.1489 58.6531C14.2123 58.5897 14.2898 58.5404 14.3884 58.4981C14.4659 58.4664 30.9608 51.7952 36.3076 49.636C36.3217 49.6325 36.3358 49.6255 36.3499 49.6219C36.7092 49.4846 37.1177 49.5621 37.403 49.8438C37.6778 50.1186 37.7588 50.5131 37.639 50.8618L37.5298 51.0978H37.5263L27.4209 72.3653C27.1673 72.8901 26.6143 72.8021 26.3079 72.7035C25.0081 72.2878 23.8352 71.4918 22.6482 70.6429C21.4013 69.7553 20.2566 68.7867 19.2175 67.737C18.027 66.5395 16.9703 65.2327 16.0686 63.8379C15.4346 62.8622 14.6456 61.566 14.1454 60.2205C13.9411 59.6745 13.8073 58.9983 14.1595 58.646L14.1489 58.6531Z" fill="url(#paint0_linear_233_448)"/>
<path d="M11.7609 33.4406C11.8525 33.4406 11.9406 33.4617 12.0392 33.5004C12.1167 33.5321 28.4953 40.4816 33.8034 42.7323C33.8175 42.7394 33.828 42.7464 33.8421 42.7535C34.1908 42.9085 34.4304 43.2536 34.4268 43.6552C34.4268 44.0426 34.2049 44.3808 33.8738 44.5393L33.6273 44.6273H33.6202L11.4369 52.5172C10.8874 52.711 10.5563 52.2566 10.4084 51.9713C9.78494 50.7596 9.51725 49.3648 9.27773 47.9277C9.02413 46.4167 8.90085 44.9232 8.90437 43.4474C8.91141 41.7567 9.08401 40.0871 9.43271 38.4633C9.67575 37.3256 10.0315 35.8498 10.6303 34.543C10.8733 34.0147 11.2573 33.437 11.7539 33.4406H11.7609Z" fill="url(#paint1_linear_233_448)"/>
<path d="M27.9001 13.9271C27.9635 13.9905 28.0128 14.068 28.0551 14.1666C28.0868 14.2441 34.758 30.739 36.9172 36.0858C36.9207 36.0999 36.9277 36.114 36.9313 36.1281C37.0686 36.4873 36.9911 36.8959 36.7094 37.1812C36.4346 37.456 36.0401 37.537 35.6914 37.4172L35.4554 37.308H35.4519L14.1879 27.1955C13.6631 26.9419 13.7511 26.3889 13.8497 26.0825C14.2654 24.7828 15.0614 23.6099 15.9103 22.4229C16.7979 21.176 17.7665 20.0312 18.8162 18.9921C20.0137 17.8016 21.3205 16.7449 22.7153 15.8432C23.691 15.2092 24.9872 14.4202 26.3327 13.9201C26.8787 13.7158 27.555 13.5819 27.9072 13.9342L27.9001 13.9271Z" fill="url(#paint2_linear_233_448)"/>
<path d="M53.1126 11.5425C53.1126 11.6341 53.0914 11.7222 53.0527 11.8208C53.021 11.8983 46.0715 28.2769 43.8208 33.585C43.8138 33.5991 43.8067 33.6096 43.7997 33.6237C43.6447 33.9724 43.2995 34.2119 42.898 34.2084C42.5105 34.2084 42.1724 33.9865 42.0139 33.6554L41.9258 33.4088V33.4018L34.0359 11.2185C33.8422 10.669 34.2965 10.3379 34.5818 10.19C35.7935 9.56652 37.1883 9.29883 38.6254 9.05932C40.1365 8.80571 41.6299 8.68243 43.1058 8.68596C44.7965 8.693 46.466 8.86559 48.0898 9.2143C49.2275 9.45734 50.7033 9.81308 52.0101 10.4119C52.5384 10.6549 53.1161 11.0388 53.1126 11.5355V11.5425Z" fill="url(#paint3_linear_233_448)"/>
<path d="M72.6259 27.6816C72.5625 27.745 72.485 27.7943 72.3864 27.8366C72.3089 27.8683 55.814 34.5395 50.4672 36.6987C50.4531 36.7022 50.439 36.7092 50.425 36.7128C50.0657 36.8501 49.6571 36.7726 49.3718 36.4908C49.0971 36.2161 49.016 35.8216 49.1358 35.4729L49.245 35.2369H49.2485L59.3539 13.9694C59.6075 13.4446 60.1605 13.5326 60.467 13.6312C61.7667 14.0469 62.9396 14.8429 64.1266 15.6918C65.3735 16.5794 66.5183 17.548 67.5573 18.5977C68.7479 19.7952 69.8045 21.102 70.7063 22.4968C71.3403 23.4725 72.1293 24.7687 72.6294 26.1142C72.8337 26.6602 72.9676 27.3364 72.6153 27.6887L72.6259 27.6816Z" fill="url(#paint4_linear_233_448)"/>
<path d="M75.0141 52.8906C74.9225 52.8906 74.8344 52.8695 74.7358 52.8307C74.6583 52.799 58.2797 45.8496 52.9716 43.5988C52.9575 43.5918 52.947 43.5847 52.9329 43.5777C52.5842 43.4227 52.3447 43.0775 52.3482 42.676C52.3482 42.2885 52.5701 41.9504 52.9012 41.7919L53.1477 41.7038H53.1548L75.3381 33.8139C75.8876 33.6202 76.2187 34.0746 76.3666 34.3599C76.9901 35.5715 77.2578 36.9664 77.4973 38.4035C77.7509 39.9145 77.8742 41.408 77.8706 42.8838C77.8636 44.5745 77.691 46.2441 77.3423 47.8678C77.0993 49.0055 76.7435 50.4814 76.1447 51.7881C75.9017 52.3165 75.5178 52.8941 75.0211 52.8906H75.0141Z" fill="url(#paint5_linear_233_448)"/>
<path d="M58.8752 72.4076C58.8118 72.3442 58.7625 72.2667 58.7202 72.1681C58.6885 72.0906 52.0173 55.5957 49.8581 50.2489C49.8546 50.2348 49.8476 50.2207 49.8441 50.2066C49.7067 49.8473 49.7842 49.4388 50.0659 49.1535C50.3407 48.8787 50.7352 48.7977 51.0839 48.9175L51.3199 49.0267H51.3234L72.5874 59.1391C73.1122 59.3927 73.0242 59.9457 72.9256 60.2522C72.5099 61.5519 71.7139 62.7248 70.865 63.9118C69.9774 65.1587 69.0088 66.3035 67.9592 67.3425C66.7616 68.5331 65.4548 69.5897 64.06 70.4914C63.0843 71.1255 61.7881 71.9145 60.4426 72.4146C59.8966 72.6189 59.2204 72.7528 58.8681 72.4005L58.8752 72.4076Z" fill="url(#paint6_linear_233_448)"/>
<path d="M33.6626 74.7921C33.6626 74.7006 33.6837 74.6125 33.7225 74.5139C33.7542 74.4364 40.7037 58.0578 42.9544 52.7497C42.9614 52.7356 42.9685 52.725 42.9755 52.711C43.1305 52.3622 43.4757 52.1227 43.8772 52.1263C44.2647 52.1263 44.6028 52.3482 44.7613 52.6793L44.8494 52.9258V52.9329L52.7393 75.1162C52.933 75.6657 52.4786 75.9968 52.1933 76.1447C50.9817 76.7681 49.5869 77.0358 48.1498 77.2754C46.6387 77.529 45.1453 77.6522 43.6694 77.6487C41.9787 77.6417 40.3092 77.4691 38.6854 77.1204C37.5477 76.8773 36.0719 76.5216 34.7651 75.9228C34.2367 75.6798 33.6591 75.2958 33.6626 74.7992V74.7921Z" fill="url(#paint7_linear_233_448)"/>
<path d="M43.3875 86.775C19.4641 86.775 0 67.3108 0 43.3875C0 19.4641 19.4641 0 43.3875 0C67.3108 0 86.775 19.4641 86.775 43.3875C86.775 67.3108 67.3108 86.775 43.3875 86.775ZM43.3875 3.87451C21.5986 3.87451 3.87451 21.5986 3.87451 43.3875C3.87451 65.1763 21.5986 82.9005 43.3875 82.9005C65.1763 82.9005 82.9005 65.1763 82.9005 43.3875C82.9005 21.5986 65.1763 3.87451 43.3875 3.87451Z" fill="url(#paint8_linear_233_448)"/>
<defs>
<linearGradient id="paint0_linear_233_448" x1="25.7062" y1="72.7798" x2="25.8215" y2="49.5051" gradientUnits="userSpaceOnUse">
<stop stop-color="#C1DC49"/>
<stop offset="1" stop-color="#ECF45B"/>
</linearGradient>
<linearGradient id="paint1_linear_233_448" x1="9.94608" y1="51.6036" x2="26.4853" y2="35.2275" gradientUnits="userSpaceOnUse">
<stop stop-color="#C1DC49"/>
<stop offset="1" stop-color="#ECF45B"/>
</linearGradient>
<linearGradient id="paint2_linear_233_448" x1="13.7734" y1="25.4879" x2="37.048" y2="25.6032" gradientUnits="userSpaceOnUse">
<stop stop-color="#C1DC49"/>
<stop offset="1" stop-color="#ECF45B"/>
</linearGradient>
<linearGradient id="paint3_linear_233_448" x1="34.9495" y1="9.72414" x2="51.3257" y2="26.2634" gradientUnits="userSpaceOnUse">
<stop stop-color="#C1DC49"/>
<stop offset="1" stop-color="#ECF45B"/>
</linearGradient>
<linearGradient id="paint4_linear_233_448" x1="61.0686" y1="13.5549" x2="60.9533" y2="36.8295" gradientUnits="userSpaceOnUse">
<stop stop-color="#C1DC49"/>
<stop offset="1" stop-color="#ECF45B"/>
</linearGradient>
<linearGradient id="paint5_linear_233_448" x1="76.8289" y1="34.7311" x2="60.2897" y2="51.1072" gradientUnits="userSpaceOnUse">
<stop stop-color="#C1DC49"/>
<stop offset="1" stop-color="#ECF45B"/>
</linearGradient>
<linearGradient id="paint6_linear_233_448" x1="73.0019" y1="60.8467" x2="49.7273" y2="60.7314" gradientUnits="userSpaceOnUse">
<stop stop-color="#C1DC49"/>
<stop offset="1" stop-color="#ECF45B"/>
</linearGradient>
<linearGradient id="paint7_linear_233_448" x1="51.8257" y1="76.607" x2="35.4495" y2="60.0678" gradientUnits="userSpaceOnUse">
<stop stop-color="#C1DC49"/>
<stop offset="1" stop-color="#ECF45B"/>
</linearGradient>
<linearGradient id="paint8_linear_233_448" x1="0" y1="43.3875" x2="86.775" y2="43.3875" gradientUnits="userSpaceOnUse">
<stop stop-color="#C1DC49"/>
<stop offset="1" stop-color="#ECF45B"/>
</linearGradient>
</defs>
</svg>
