<svg width="11" height="11" viewBox="0 0 11 11" fill="none" xmlns="http://www.w3.org/2000/svg">
<path d="M7.47303 3.37035C7.49445 3.40201 7.51186 3.4359 7.52257 3.47291C7.56587 3.61917 7.49892 3.79576 7.37348 3.88093C7.18064 4.01204 7.01637 3.92909 6.85121 3.8029C6.64364 3.6437 6.40304 3.50368 6.14861 3.43679C6.02094 3.4029 5.88881 3.39353 5.75802 3.37659C5.63794 3.36098 5.49555 3.35518 5.41921 3.25173C5.28396 3.06801 5.31878 2.82676 5.31833 2.61361C5.31833 2.47225 5.3094 2.33133 5.31476 2.18997C5.31922 2.07671 5.32547 1.94739 5.4085 1.86043C5.52099 1.74271 5.71427 1.71462 5.85801 1.78864C5.96603 1.84438 6.03344 1.9465 6.05576 2.06378C6.07585 2.17125 6.06335 2.28184 6.05397 2.3902C6.04638 2.47581 6.03299 2.57659 6.09861 2.64482C6.17539 2.72464 6.31064 2.71572 6.41063 2.7407C6.67891 2.80758 6.92263 2.94582 7.15029 3.09922C7.25876 3.17235 7.39491 3.25619 7.47303 3.37079V3.37035Z" fill="#FDFEFC"/>
<path d="M10.4607 9.60129C10.4598 9.59461 10.4589 9.58792 10.4576 9.58123C10.4437 9.50988 10.4089 9.44165 10.3535 9.38591L1.49819 0.539596C1.44954 0.49099 1.39061 0.458437 1.32857 0.441938C1.20179 0.407602 1.06074 0.440154 0.961193 0.539596C0.829064 0.672037 0.815225 0.878501 0.920125 1.0261C0.931731 1.04349 0.94557 1.05999 0.961193 1.0756L1.46293 1.57638C1.48793 1.59912 1.51114 1.62231 1.53256 1.64639L1.68478 1.798C1.68478 1.798 1.68299 1.80023 1.6821 1.80113C1.67228 1.81227 1.66246 1.82342 1.65264 1.83502C1.64996 1.83769 1.64773 1.84037 1.6455 1.84349C0.837544 2.77637 0.348755 3.99108 0.348755 5.31816C0.348755 8.25192 2.7378 10.6385 5.67456 10.6385C7.00701 10.6385 8.22653 10.1471 9.16126 9.33552L9.15278 9.32749C9.15858 9.32705 9.16438 9.32749 9.16974 9.32839C9.17822 9.32125 9.1867 9.31412 9.19518 9.30654L9.93618 10.0472H9.93707C10.0844 10.1297 10.2603 10.1088 10.3781 9.99059C10.4834 9.8858 10.5129 9.73641 10.4607 9.60129ZM4.06713 4.17837L4.06802 4.18461C4.13096 4.63366 4.42602 5.06665 4.85187 5.24369C4.93624 5.27892 5.01882 5.31905 5.10229 5.3574C5.17595 5.39129 5.25228 5.41269 5.32102 5.45773C5.4411 5.53577 5.5393 5.65662 5.64108 5.7574C5.83927 5.95361 6.03568 6.15026 6.23298 6.34736C6.33833 6.4526 6.44234 6.55873 6.54857 6.66263L6.60527 6.71926C6.61598 6.72997 6.58563 6.79775 6.58027 6.8089C6.56107 6.8468 6.53206 6.87489 6.49769 6.89763C6.416 6.95159 6.32092 6.99128 6.22896 7.02339C5.84329 7.15627 5.39646 7.11525 5.02864 6.94535C4.83089 6.85393 4.68715 6.72238 4.53137 6.57478C4.44789 6.49585 4.34969 6.42361 4.23542 6.41113C3.92339 6.37634 3.73725 6.75092 3.91357 6.99262C4.06445 7.19908 4.26175 7.3721 4.48137 7.50231C4.59208 7.56786 4.70947 7.62271 4.83178 7.66329C4.9465 7.70164 5.07596 7.70699 5.18666 7.75426C5.21076 7.76452 5.23308 7.77745 5.25272 7.79484C5.31254 7.84746 5.3362 7.93129 5.33977 8.01067C5.34736 8.1877 5.29647 8.36518 5.32325 8.54177C5.35986 8.78257 5.61831 8.9431 5.84775 8.83385C5.99729 8.7625 6.05175 8.60197 6.06514 8.44723C6.07853 8.2925 6.03122 8.1168 6.06336 7.95894C6.08746 7.83988 6.17227 7.81491 6.4102 7.74267C6.56688 7.69584 6.71909 7.641 6.85435 7.54646C6.91506 7.5041 6.97353 7.45772 7.0329 7.41357C7.0762 7.38147 7.14941 7.30878 7.20967 7.32171L8.02432 8.13553C8.02432 8.13553 8.0261 8.13375 8.027 8.13285L8.66175 8.76652C8.66175 8.76652 8.65952 8.7683 8.65863 8.76919C8.64747 8.779 8.63631 8.78837 8.6247 8.79818C8.20867 9.14957 7.73194 9.42738 7.21904 9.61155C6.70615 9.79572 6.2004 9.88 5.67545 9.88C3.1574 9.88 1.1085 7.83319 1.1085 5.31771C1.1085 4.19531 1.51605 3.16656 2.19098 2.37147C2.2008 2.35987 2.21062 2.34828 2.21999 2.33713C2.22133 2.33624 2.22178 2.33535 2.22267 2.33446L2.88064 2.99175L4.06802 4.17792L4.06713 4.17837Z" fill="white"/>
<path d="M10.9995 5.24949C10.9995 5.23522 10.9995 5.22095 10.9991 5.20668C10.9986 5.19241 10.9982 5.17814 10.9977 5.16387C10.9781 4.53289 10.8464 3.92821 10.6223 3.36991H10.6219C10.5982 3.30926 10.5732 3.24861 10.5469 3.18975C10.5469 3.18975 10.5464 3.18886 10.5464 3.18841C10.5464 3.18797 10.546 3.18841 10.546 3.18752C10.5455 3.18708 10.5456 3.18618 10.5451 3.18574C10.4398 2.9494 10.3174 2.72197 10.18 2.50525C10.1795 2.50436 10.1786 2.50347 10.1782 2.50258C10.0974 2.37415 10.0108 2.24929 9.91927 2.12889C9.51887 1.60225 9.02383 1.15142 8.45871 0.803146C8.45781 0.802254 8.45692 0.801808 8.45603 0.801362C8.31006 0.71173 8.16008 0.628788 8.00518 0.55298L8.0025 0.551642C8.0025 0.551642 8.00206 0.551196 8.00161 0.551196H8.00116C7.83198 0.467808 7.65789 0.39423 7.47889 0.32957C7.47845 0.32957 7.47756 0.329124 7.47711 0.329124C7.47622 0.329124 7.47532 0.329124 7.47443 0.328233C7.47399 0.328233 7.47354 0.327787 7.47309 0.327787H7.47265C7.47265 0.327787 7.47131 0.327341 7.47041 0.326895C7.26374 0.251533 7.05126 0.190441 6.83298 0.140943H6.83208C6.63478 0.096796 6.43302 0.0633515 6.22813 0.0423929C6.21295 0.0406091 6.19777 0.0392714 6.1826 0.0379336C6.06788 0.0267854 5.95226 0.0196505 5.83576 0.0160831C5.59382 0.00850233 5.355 0.0178668 5.12065 0.0437306C5.1144 0.0441766 5.1086 0.0446225 5.10235 0.0455144C5.09878 0.0455144 5.09565 0.0459603 5.09208 0.0464062C5.08896 0.0464062 5.08539 0.0468521 5.08226 0.0472981C5.08003 0.0472981 5.07824 0.0472981 5.07601 0.0472981C5.07423 0.0472981 5.07244 0.047744 5.07066 0.047744C4.92469 0.0637974 4.7814 0.0860938 4.63945 0.114633H4.639C4.35153 0.171266 4.07343 0.250641 3.80471 0.351867H3.80427C3.80427 0.351867 3.80337 0.352759 3.80293 0.352759C3.79578 0.354988 3.78864 0.357664 3.7815 0.360785H3.78105C3.7757 0.362569 3.77079 0.364353 3.76543 0.366582C3.61411 0.424999 3.52885 0.56502 3.52662 0.709055C3.52483 0.804929 3.55965 0.902588 3.63598 0.978841L3.64491 0.98776C3.75025 1.09344 3.90783 1.12377 4.0471 1.0707C4.25556 0.990881 4.47161 0.925776 4.69346 0.877616C4.72203 0.870927 4.75104 0.86513 4.78006 0.859778C4.78006 0.859778 4.7814 0.859333 4.78229 0.859333C4.78363 0.858887 4.78497 0.858887 4.78631 0.858441C5.13136 0.789768 5.49026 0.760337 5.85852 0.775052C7.48604 0.839266 8.90152 1.76501 9.65725 3.10547C9.65725 3.10547 9.65725 3.10636 9.65769 3.10636C9.69876 3.1795 9.73804 3.25352 9.77509 3.32933C9.77509 3.32977 9.77554 3.32977 9.77554 3.33022C9.90544 3.59332 10.0103 3.87068 10.0871 4.1592C10.0871 4.1592 10.0876 4.16054 10.0876 4.16098C10.1179 4.2738 10.1443 4.38796 10.1652 4.5039C10.1657 4.50524 10.1657 4.50658 10.1661 4.50791C10.2032 4.70858 10.2268 4.91371 10.2362 5.1224V5.13177C10.2362 5.13177 10.2362 5.1331 10.2367 5.134C10.2367 5.1389 10.2367 5.14425 10.2375 5.14916C10.2389 5.18037 10.2398 5.21114 10.2402 5.24191C10.2416 5.30345 10.2416 5.36454 10.2398 5.42563C10.2393 5.45194 10.2384 5.47781 10.2375 5.50367C10.2367 5.52864 10.2358 5.55361 10.234 5.57814C10.2335 5.59687 10.2322 5.61515 10.2308 5.63344C10.2304 5.64681 10.2291 5.65975 10.2282 5.67312C10.2259 5.70478 10.2237 5.736 10.221 5.76677C10.2179 5.79798 10.2148 5.82875 10.2112 5.85997C10.209 5.8787 10.2067 5.89743 10.2036 5.91615C10.1576 6.27869 10.0684 6.6283 9.94159 6.95918C9.92508 7.00154 9.91659 7.04613 9.91615 7.08984C9.91392 7.18972 9.95097 7.28827 10.0242 7.36141L10.0331 7.36988C10.1032 7.43989 10.1911 7.47512 10.2791 7.47913H10.2826C10.417 7.48404 10.5509 7.41715 10.6219 7.2914C10.6237 7.28872 10.625 7.28604 10.6263 7.28292C10.6339 7.26954 10.6402 7.25527 10.646 7.24056C10.862 6.68047 10.9861 6.0758 10.9986 5.44392C11.0004 5.37926 11.0004 5.31415 10.9991 5.24905L10.9995 5.24949Z" fill="white"/>
</svg>
