<svg width="26" height="27" viewBox="0 0 26 27" fill="none" xmlns="http://www.w3.org/2000/svg">
<path d="M16.5 7.45833H16.5129M13.2708 24.25H4.875C3.84729 24.25 2.86166 23.8417 2.13496 23.115C1.40826 22.3883 1 21.4027 1 20.375V4.875C1 3.84729 1.40826 2.86166 2.13496 2.13496C2.86166 1.40826 3.84729 1 4.875 1H20.375C21.4027 1 22.3883 1.40826 23.115 2.13496C23.8417 2.86166 24.25 3.84729 24.25 4.875V13.2708" stroke="#124DE4" stroke-width="2" stroke-linecap="round" stroke-linejoin="round"/>
<path d="M1 17.7917L7.45833 11.3334C8.657 10.1799 10.1347 10.1799 11.3333 11.3334L16.5 16.5" stroke="#124DE4" stroke-width="2" stroke-linecap="round" stroke-linejoin="round"/>
<path d="M15.2084 15.2083L16.5 13.9167C17.3655 13.0848 18.373 12.8523 19.3185 13.2192M17.7917 21.6667H25.5417M21.6667 17.7917V25.5417" stroke="#124DE4" stroke-width="2" stroke-linecap="round" stroke-linejoin="round"/>
</svg>
