<svg xmlns="http://www.w3.org/2000/svg" version="1.1" viewBox="7.5 12.5 95.01 95.01">
  <defs>
    <style>
      .cls-1 {
        fill: #d6f009;
        fill-rule: evenodd;
      }
    </style>
  </defs>
  <!-- Generator: Adobe Illustrator 28.6.0, SVG Export Plug-In . SVG Version: 1.2.0 Build 709)  -->
  <g>
    <g id="Capa_1">
      <path class="cls-1" d="M26.16,17.42c0-2.25,1.82-4.07,4.07-4.07s4.07,1.82,4.07,4.07v13.74h13.74c2.25,0,4.07,1.82,4.07,4.07s-1.82,4.07-4.07,4.07h-13.74v13.74c0,2.25-1.82,4.07-4.07,4.07s-4.07-1.82-4.07-4.07v-13.74h-13.74c-2.25,0-4.07-1.82-4.07-4.07s1.82-4.07,4.07-4.07h13.74v-13.74ZM89.94,20.64h-18.66c-2.43,0-4.41,1.98-4.41,4.41v18.66c0,2.43,1.98,4.41,4.41,4.41h18.66c2.43,0,4.41-1.98,4.41-4.41v-18.66c0-2.43-1.98-4.41-4.41-4.41ZM71.29,12.5h18.66c6.92,0,12.56,5.64,12.56,12.56v18.66c0,6.92-5.64,12.56-12.56,12.56h-18.66c-6.92,0-12.56-5.64-12.56-12.56v-18.66c0-6.92,5.64-12.56,12.56-12.55ZM89.95,71.88h-18.66c-2.43,0-4.41,1.99-4.41,4.41v18.66c0,2.42,1.98,4.41,4.41,4.41h18.66c2.43,0,4.41-1.99,4.41-4.41v-18.66c0-2.43-1.98-4.41-4.41-4.41ZM71.29,63.73h18.66c6.92,0,12.56,5.63,12.56,12.56v18.66c0,6.92-5.64,12.56-12.56,12.56h-18.66c-6.92,0-12.56-5.64-12.56-12.56v-18.66c0-6.92,5.64-12.56,12.56-12.56ZM38.72,71.88h-18.66c-2.43,0-4.41,1.99-4.41,4.41v18.66c0,2.42,1.98,4.41,4.41,4.41h18.66c2.43,0,4.41-1.99,4.41-4.41v-18.66c0-2.43-1.98-4.41-4.41-4.41ZM20.06,63.73h18.66c6.92,0,12.56,5.63,12.56,12.56v18.66c0,6.92-5.63,12.56-12.56,12.56h-18.66c-6.92,0-12.56-5.64-12.56-12.56v-18.66c0-6.92,5.63-12.56,12.56-12.56Z"/>
    </g>
  </g>
</svg>