<svg xmlns="http://www.w3.org/2000/svg" xmlns:xlink="http://www.w3.org/1999/xlink" version="1.1" viewBox="50.36 80.99 235.92 234.06">
  <defs>
    <style>
      .cls-1 {
        fill: url(#Degradado_sin_nombre_385);
      }

      .cls-2 {
        fill: url(#Degradado_sin_nombre_385-3);
      }

      .cls-3 {
        fill: url(#Degradado_sin_nombre_385-6);
      }

      .cls-4 {
        fill: url(#Degradado_sin_nombre_385-4);
      }

      .cls-5 {
        fill: url(#Degradado_sin_nombre_385-5);
      }

      .cls-6 {
        fill: url(#Degradado_sin_nombre_385-2);
      }
    </style>
    <linearGradient id="Degradado_sin_nombre_385" data-name="Degradado sin nombre 385" x1="108.71" y1="223.53" x2="147.11" y2="261.92" gradientUnits="userSpaceOnUse">
      <stop offset="0" stop-color="#c1dc49"/>
      <stop offset="1" stop-color="#ecf45b"/>
    </linearGradient>
    <linearGradient id="Degradado_sin_nombre_385-2" data-name="Degradado sin nombre 385" x1="78.37" y1="176.89" x2="125.94" y2="224.46" xlink:href="#Degradado_sin_nombre_385"/>
    <linearGradient id="Degradado_sin_nombre_385-3" data-name="Degradado sin nombre 385" x1="105.56" y1="132.2" x2="156.7" y2="183.34" xlink:href="#Degradado_sin_nombre_385"/>
    <linearGradient id="Degradado_sin_nombre_385-4" data-name="Degradado sin nombre 385" x1="149.86" y1="108.72" x2="196.59" y2="155.44" xlink:href="#Degradado_sin_nombre_385"/>
    <linearGradient id="Degradado_sin_nombre_385-5" data-name="Degradado sin nombre 385" x1="196.9" y1="141.87" x2="235.3" y2="180.27" xlink:href="#Degradado_sin_nombre_385"/>
    <linearGradient id="Degradado_sin_nombre_385-6" data-name="Degradado sin nombre 385" x1="86.16" y1="116.77" x2="207.21" y2="237.81" xlink:href="#Degradado_sin_nombre_385"/>
  </defs>
  <!-- Generator: Adobe Illustrator 28.6.0, SVG Export Plug-In . SVG Version: 1.2.0 Build 709)  -->
  <g>
    <g id="Modo_de_aislamiento">
      <g>
        <g>
          <g id="_x3C_Repetición_radial_x3E_">
            <path class="cls-1" d="M155.41,220.16c0,.39-.07.77-.22,1.1l-10.86,23.17-.04.04-.64,1.38-17.07,36.42c-.71,1.49-2.28,1.25-3.16.98-3.68-1.17-7.03-3.41-10.41-5.79-7.62-5.37-13.95-11.83-18.79-19.23-1.81-2.75-4.07-6.41-5.49-10.25-.68-1.82-1.13-4.15.67-4.89.2-.09,3.49-1.44,61.97-25.44.09-.04.2-.09.29-.13.29-.11.61-.17.94-.17,1.56,0,2.81,1.26,2.82,2.81Z"/>
          </g>
          <g id="_x3C_Repetición_radial_x3E_-2" data-name="_x3C_Repetición_radial_x3E_">
            <path class="cls-6" d="M148.11,201.1c0,1.18-.7,2.17-1.71,2.61l-63.37,22.9c-1.54.54-2.48-.73-2.91-1.56-1.79-3.43-2.57-7.37-3.27-11.45-1.59-9.19-1.5-18.23.31-26.89.66-3.22,1.66-7.41,3.35-11.12.68-1.51,1.76-3.15,3.16-3.15.26,0,.51.05.79.16h.02c.13.05,16.75,7.01,33.38,13.95,11.24,4.71,22.46,9.4,28.54,11.94,1.01.42,1.71,1.43,1.71,2.59Z"/>
          </g>
          <g id="_x3C_Repetición_radial_x3E_-3" data-name="_x3C_Repetición_radial_x3E_">
            <path class="cls-2" d="M156.5,182.33c0,1.52-1.16,2.79-2.68,2.89-.49.03-.93-.04-1.34-.21l-60.86-28.54c-1.49-.71-1.23-2.28-.96-3.14,1.17-3.7,3.41-7.04,5.77-10.43,5.37-7.62,11.85-13.93,19.23-18.78,2.75-1.82,6.41-4.07,10.25-5.51.86-.33,1.84-.59,2.72-.59.96,0,1.8.33,2.19,1.28.07.18,6.92,16.88,13.74,33.52,4.48,10.93,8.97,21.82,11.51,28.03,0,0,.02,0,0,.02.13.29.24.57.35.85.02.02.02.04.02.05.04.18.06.37.06.57Z"/>
          </g>
          <g id="_x3C_Repetición_radial_x3E_-4" data-name="_x3C_Repetición_radial_x3E_">
            <path class="cls-4" d="M201.46,113.59c0,.26-.05.51-.16.79-.09.22-19.58,46.82-25.9,61.92-.02.04-.04.07-.06.11-.44.99-1.41,1.67-2.55,1.68-1.1,0-2.06-.62-2.52-1.56l-.26-.7v-.02s-22.72-62.86-22.72-62.86c-.55-1.56.73-2.5,1.54-2.92,3.43-1.79,7.38-2.57,11.46-3.27,4.28-.74,8.53-1.12,12.72-1.12,4.8,0,9.54.46,14.15,1.43,3.24.68,7.43,1.66,11.14,3.35,1.51.68,3.15,1.76,3.15,3.17Z"/>
          </g>
          <g id="_x3C_Repetición_radial_x3E_-5" data-name="_x3C_Repetición_radial_x3E_">
            <path class="cls-5" d="M255.9,158.53c0,.96-.33,1.8-1.28,2.19-.2.07-3.49,1.44-62.05,25.48-.04.02-.06.02-.09.04-.33.13-.68.2-1.05.2-1.56,0-2.81-1.26-2.82-2.83,0-.39.07-.75.22-1.08v-.02s28.6-60.99,28.6-60.99c.44-.9,1.21-1.16,1.93-1.16.46,0,.9.09,1.23.2,3.7,1.17,7.03,3.41,10.41,5.79,7.64,5.37,13.95,11.83,18.79,19.21,1.81,2.77,4.07,6.43,5.51,10.25.31.86.59,1.84.59,2.72Z"/>
          </g>
        </g>
        <path class="cls-3" d="M282.27,161.79c-2.67.77-5.51-.55-6.65-3.1-10.2-22.87-28.41-41.87-50.55-53.49-22.07-11.58-47.94-15.75-72.5-11.33-25.92,4.67-49.58,18.82-66.17,39.25-5.23,6.44-9.74,13.48-13.39,20.93-8.47,17.31-12.63,36.74-11.35,56.01,2.72,41.55,27.98,77.64,62.45,94.42,1.95.95,3.11,2.9,3.1,4.99,0,.57-.1,1.15-.28,1.72-1.05,3.19-4.68,4.78-7.7,3.3-24.95-12.21-44.72-31.96-56.64-57.1-12.16-25.66-15.54-55.59-8.85-83.24.51-2.1,1.1-4.17,1.69-6.25,6.71-23.51,21.93-45.09,41-60.35,21.83-17.46,49.69-26.88,77.62-26.55,26.85.31,53.46,9.53,74.83,25.77,16.12,12.28,28.83,28.89,36.94,47.43,1.34,3.08-.35,6.63-3.56,7.59Z"/>
      </g>
    </g>
  </g>
</svg>