<?xml version="1.0" encoding="UTF-8"?>
<svg id="Capa_1" data-name="Capa 1" xmlns="http://www.w3.org/2000/svg" xmlns:xlink="http://www.w3.org/1999/xlink" viewBox="0 0 1197 1204.74">
  <defs>
    <style>
      .cls-1 {
        fill: url(#Degradado_sin_nombre_385);
      }

      .cls-1, .cls-2, .cls-3, .cls-4, .cls-5, .cls-6 {
        stroke-width: 0px;
      }

      .cls-2 {
        fill: url(#Degradado_sin_nombre_385-2);
      }

      .cls-3 {
        fill: url(#Degradado_sin_nombre_385-5);
      }

      .cls-4 {
        fill: url(#Degradado_sin_nombre_385-4);
      }

      .cls-5 {
        fill: url(#Degradado_sin_nombre_385-3);
      }

      .cls-6 {
        fill: url(#Degradado_sin_nombre_385-6);
      }
    </style>
    <linearGradient id="Degradado_sin_nombre_385" data-name="Degradado sin nombre 385" x1="1662.65" y1="-150.94" x2="2006.03" y2="-150.94" gradientTransform="translate(1017.24 2673.67) rotate(-90)" gradientUnits="userSpaceOnUse">
      <stop offset="0" stop-color="#c1dc49"/>
      <stop offset="1" stop-color="#ecf45b"/>
    </linearGradient>
    <linearGradient id="Degradado_sin_nombre_385-2" data-name="Degradado sin nombre 385" x1="1598.5" y1="-409.53" x2="1968.38" y2="-409.53" xlink:href="#Degradado_sin_nombre_385"/>
    <linearGradient id="Degradado_sin_nombre_385-3" data-name="Degradado sin nombre 385" x1="1672.85" y1="-655.77" x2="2010.9" y2="-655.77" xlink:href="#Degradado_sin_nombre_385"/>
    <linearGradient id="Degradado_sin_nombre_385-4" data-name="Degradado sin nombre 385" x1="1961.87" y1="-706.25" x2="2239.36" y2="-706.25" xlink:href="#Degradado_sin_nombre_385"/>
    <linearGradient id="Degradado_sin_nombre_385-5" data-name="Degradado sin nombre 385" x1="2175.01" y1="-647.9" x2="2518.37" y2="-647.9" xlink:href="#Degradado_sin_nombre_385"/>
    <linearGradient id="Degradado_sin_nombre_385-6" data-name="Degradado sin nombre 385" x1="1468.92" y1="-418.74" x2="2673.67" y2="-418.74" xlink:href="#Degradado_sin_nombre_385"/>
  </defs>
  <g>
    <g id="_Repetición_radial_" data-name="&amp;lt;Repetición radial&amp;gt;">
      <path class="cls-1" d="M711.45,667.64c1.97-.01,3.95.36,5.64,1.1l118.63,55.08.19.19,7.06,3.25,186.41,86.56c7.63,3.62,6.45,11.61,5.06,16.13-5.91,18.81-17.28,35.97-29.4,53.31-27.32,39.03-60.21,71.5-97.93,96.4-14.04,9.28-32.67,20.93-52.26,28.26-9.28,3.52-21.19,5.84-25-3.35-.48-1.03-7.42-17.81-131.16-316.21-.19-.47-.48-1.03-.66-1.5-.57-1.5-.86-3.1-.87-4.79-.04-7.98,6.41-14.4,14.3-14.44Z"/>
    </g>
    <g id="_Repetición_radial_-2" data-name="&amp;lt;Repetición radial&amp;gt;">
      <path class="cls-2" d="M614.17,705.29c6.01-.03,11.1,3.51,13.38,8.67l118.23,323.41c2.76,7.88-3.69,12.7-7.9,14.88-17.52,9.2-37.59,13.25-58.43,16.93-46.92,8.32-93.13,8-137.41-1.07-16.45-3.3-37.89-8.35-56.91-16.89-7.72-3.43-16.11-8.93-16.14-16.07,0-1.31.27-2.63.83-4.04v-.09c.28-.66,35.53-85.75,70.68-170.83,23.84-57.51,47.59-114.92,60.48-146.08,2.13-5.18,7.28-8.77,13.2-8.8Z"/>
    </g>
    <g id="_Repetición_radial_-3" data-name="&amp;lt;Repetición radial&amp;gt;">
      <path class="cls-5" d="M518.13,662.77c7.77-.05,14.27,5.88,14.8,13.63.17,2.52-.18,4.75-1.06,6.86l-144.71,311.53c-3.62,7.63-11.61,6.35-16.03,4.97-18.91-5.91-36.06-17.28-53.41-29.31-39.03-27.32-71.41-60.3-96.31-97.93-9.37-14.04-20.93-32.67-28.35-52.26-1.71-4.41-3.05-9.38-3.08-13.88-.03-4.88,1.64-9.21,6.52-11.21.94-.38,86.13-35.67,171.04-70.86,55.76-23.11,111.34-46.22,143.01-59.35,0,0,0-.09.09,0,1.5-.67,2.9-1.24,4.31-1.81.09-.09.19-.09.28-.1.93-.19,1.87-.29,2.89-.3Z"/>
    </g>
    <g id="_Repetición_radial_-4" data-name="&amp;lt;Repetición radial&amp;gt;">
      <path class="cls-4" d="M165.98,434.31c1.31,0,2.63.27,4.04.82,1.13.46,239.64,99.16,316.91,131.16.19.09.38.19.56.28,5.08,2.23,8.58,7.19,8.61,13.01.03,5.63-3.14,10.54-7.92,12.91l-3.56,1.33h-.09s-320.79,117.28-320.79,117.28c-7.97,2.86-12.79-3.69-14.97-7.81-9.2-17.52-13.25-37.69-16.93-58.52-3.87-21.86-5.86-43.55-5.97-64.96-.13-24.51,2.19-48.76,7.04-72.35,3.39-16.55,8.35-37.99,16.89-57,3.43-7.72,8.93-16.11,16.16-16.14Z"/>
    </g>
    <g id="_Repetición_radial_-5" data-name="&amp;lt;Repetición radial&amp;gt;">
      <path class="cls-3" d="M394.64,155.3c4.88-.03,9.21,1.64,11.21,6.52.38,1.03,7.42,17.81,131.35,316.58.09.19.1.28.19.47.67,1.69,1.05,3.47,1.06,5.35.04,7.98-6.41,14.4-14.39,14.44-1.97.01-3.85-.36-5.55-1.1h-.09s-312.19-144.99-312.19-144.99c-4.61-2.23-5.95-6.17-5.97-9.83-.01-2.35.45-4.6,1-6.3,5.91-18.91,17.28-35.97,29.4-53.31,27.31-39.12,60.21-71.5,97.83-96.4,14.13-9.28,32.76-20.93,52.26-28.35,4.41-1.62,9.38-3.05,13.88-3.08Z"/>
    </g>
  </g>
  <path class="cls-6" d="M410.78,20.48c3.99,13.61-2.7,28.16-15.72,34.03-116.67,52.56-213.45,145.96-272.39,259.32-58.77,113.02-79.6,245.26-56.52,370.68,24.36,132.37,97.11,253,201.84,337.37,33.03,26.61,69.05,49.52,107.23,68.01,88.62,42.95,187.99,63.86,286.42,56.96,212.25-14.67,396.22-144.43,481.29-320.9,4.81-9.97,14.78-15.96,25.46-15.96,2.93,0,5.87.47,8.8,1.41,16.31,5.28,24.52,23.82,17.01,39.31-61.95,127.74-162.46,229.11-290.71,290.48-130.9,62.64-283.79,80.48-425.19,46.78-10.73-2.56-21.35-5.52-31.96-8.5-120.28-33.82-230.85-111.19-309.16-208.38C47.56,859.88-1.11,717.67.02,574.97c1.09-137.22,47.71-273.37,130.25-382.89C192.71,109.49,277.37,44.22,371.95,2.41c15.72-6.92,33.91,1.64,38.84,18.07Z"/>
</svg>
