<svg width="1200" height="630" viewBox="0 0 1200 630" fill="none" xmlns="http://www.w3.org/2000/svg">
  <defs>
    <linearGradient id="bg" x1="0" y1="0" x2="1200" y2="630" gradientUnits="userSpaceOnUse">
      <stop offset="0" stop-color="#03060A"/>
      <stop offset="0.55" stop-color="#03060A"/>
      <stop offset="1" stop-color="#081108"/>
    </linearGradient>
    <radialGradient id="glowBg" cx="0" cy="0" r="1" gradientUnits="userSpaceOnUse" gradientTransform="translate(930 314) rotate(90) scale(210 220)">
      <stop offset="0" stop-color="#C8FF1A" stop-opacity="0.20"/>
      <stop offset="0.55" stop-color="#8BEA00" stop-opacity="0.10"/>
      <stop offset="1" stop-color="#8BEA00" stop-opacity="0"/>
    </radialGradient>
    <linearGradient id="greenText" x1="0" y1="0" x2="1" y2="1">
      <stop offset="0" stop-color="#A8ED00"/>
      <stop offset="1" stop-color="#97DB00"/>
    </linearGradient>
    <filter id="softGlow" x="-50%" y="-50%" width="200%" height="200%">
      <feGaussianBlur stdDeviation="7" result="blur"/>
      <feMerge>
        <feMergeNode in="blur"/>
        <feMergeNode in="SourceGraphic"/>
      </feMerge>
    </filter>
    <pattern id="dots" x="0" y="0" width="12" height="12" patternUnits="userSpaceOnUse">
      <circle cx="1.5" cy="1.5" r="1.2" fill="#B5FF18" fill-opacity="0.10"/>
    </pattern>
  </defs>

  <rect width="1200" height="630" fill="url(#bg)"/>
  <rect width="1200" height="630" fill="url(#glowBg)"/>
  <rect x="760" y="120" width="360" height="300" fill="url(#dots)" opacity="0.55"/>

  <g opacity="0.18">
    <path d="M0 520 C120 480, 190 585, 300 545 S500 455, 630 555 S820 620, 940 535" stroke="#8FD800" stroke-width="1.3" fill="none"/>
    <path d="M0 533 C130 493, 205 598, 315 558 S515 468, 645 568 S835 633, 955 548" stroke="#8FD800" stroke-width="0.9" fill="none"/>
    <path d="M0 546 C140 506, 215 611, 325 571 S525 481, 655 581 S845 646, 965 561" stroke="#8FD800" stroke-width="0.7" fill="none"/>
  </g>

  <g transform="translate(58 58)">
    <g transform="translate(0 2)">
      <circle cx="34" cy="34" r="28" stroke="#B5F21C" stroke-width="5" opacity="0.98"/>
      <path d="M34 34 L34 6" stroke="#B5F21C" stroke-width="4" stroke-linecap="round"/>
      <path d="M34 34 L57 18" stroke="#B5F21C" stroke-width="4" stroke-linecap="round"/>
      <path d="M34 34 L61 34" stroke="#B5F21C" stroke-width="4" stroke-linecap="round"/>
      <path d="M34 34 L56 50" stroke="#B5F21C" stroke-width="4" stroke-linecap="round"/>
      <path d="M34 34 L43 60" stroke="#B5F21C" stroke-width="4" stroke-linecap="round"/>
      <path d="M34 34 L19 58" stroke="#B5F21C" stroke-width="4" stroke-linecap="round"/>
    </g>
    <text x="68" y="72" fill="url(#greenText)" font-size="82" font-weight="700" font-family="Inter, Arial, Helvetica, sans-serif" letter-spacing="-2.8">caipi</text>
  </g>

  <g transform="translate(60 246)">
    <text x="0" y="0" fill="#F7F7F8" font-size="82" font-weight="500" font-family="Inter, Arial, Helvetica, sans-serif" letter-spacing="-3">Conectando</text>
    <text x="0" y="92" fill="url(#greenText)" font-size="96" font-weight="700" font-family="Inter, Arial, Helvetica, sans-serif" letter-spacing="-3.5">el Mercosur</text>
    <text x="2" y="170" fill="#E4E6EA" fill-opacity="0.92" font-size="48" font-weight="400" font-family="Inter, Arial, Helvetica, sans-serif">Caipi Empresas</text>
    <rect x="4" y="205" width="58" height="6" rx="3" fill="#AEEA00"/>
  </g>

  <g opacity="0.94">
    <path d="M790 382 C858 322, 920 305, 1045 285" stroke="#97E400" stroke-opacity="0.65" stroke-width="2.2" fill="none"/>
    <path d="M790 382 C850 285, 875 195, 900 172" stroke="#97E400" stroke-opacity="0.35" stroke-width="1.6" fill="none"/>
    <path d="M1045 285 C965 188, 925 174, 900 172" stroke="#97E400" stroke-opacity="0.35" stroke-width="1.6" fill="none"/>
    <path d="M790 382 C828 414, 850 476, 870 508" stroke="#97E400" stroke-opacity="0.35" stroke-width="1.6" fill="none"/>
    <path d="M1045 285 C985 340, 936 411, 870 508" stroke="#97E400" stroke-opacity="0.55" stroke-width="2" fill="none"/>
    <path d="M900 172 C1030 160, 1080 180, 1115 248" stroke="#97E400" stroke-opacity="0.14" stroke-width="1.2" fill="none"/>
    <circle cx="900" cy="172" r="5" fill="#D4FF59" filter="url(#softGlow)"/>
    <circle cx="1045" cy="285" r="5" fill="#D4FF59" filter="url(#softGlow)"/>
    <circle cx="790" cy="382" r="5" fill="#D4FF59" filter="url(#softGlow)"/>
    <circle cx="870" cy="508" r="5" fill="#D4FF59" filter="url(#softGlow)"/>
  </g>

  <g transform="translate(1035 372)">
    <rect x="-38" y="-8" width="2.5" height="150" rx="1.25" fill="#98E100"/>
    <text x="0" y="15" fill="#F0F1F3" font-size="40" font-weight="400" font-family="Inter, Arial, Helvetica, sans-serif">Pix</text>
    <text x="0" y="78" fill="url(#greenText)" font-size="40" font-weight="500" font-family="Inter, Arial, Helvetica, sans-serif">ARS ↔ BRL</text>
    <text x="0" y="140" fill="#F0F1F3" font-size="40" font-weight="400" font-family="Inter, Arial, Helvetica, sans-serif">Interoperable</text>
  </g>
</svg>
