<svg xmlns="http://www.w3.org/2000/svg" version="1.1" viewBox="6.04 24.95 97.89 70.11">
  <defs>
    <style>
      .cls-1 {
        fill: #d6f009;
      }
    </style>
  </defs>
  <!-- Generator: Adobe Illustrator 28.6.0, SVG Export Plug-In . SVG Version: 1.2.0 Build 709)  -->
  <g>
    <g id="Capa_1">
      <path class="cls-1" d="M99.66,34.01h-13.62l-1.55-5.87h0c-.61-2.29-2.95-3.65-5.24-3.05l-33.94,8.93h-18.06c-2.37,0-4.29,1.92-4.29,4.29v1.59l-13.73,3.61c-2.29.61-3.65,2.95-3.05,5.23l11.34,43.12c.5,1.88,2.2,3.19,4.14,3.2.37,0,.73-.05,1.09-.14l29.43-7.74h47.46c2.37,0,4.29-1.92,4.29-4.29v-44.59c0-2.37-1.92-4.29-4.29-4.29h0ZM79.94,27.66c.87-.23,1.75.29,1.98,1.16l1.37,5.19h-27.48l24.14-6.35ZM15.83,74.89l-7.06-26.84c-.22-.86.29-1.75,1.16-1.98l13.05-3.43v30.38s-7.15,1.88-7.15,1.88ZM22.1,92.34h0c-.87.22-1.75-.29-1.98-1.16l-1.12-4.27,4.96-1.3h0c.81,1,2.03,1.57,3.31,1.57h14.45l-19.62,5.16ZM101.28,82.89h0c0,.9-.73,1.62-1.62,1.63H27.27c-.89,0-1.62-.73-1.62-1.62v-4.42h75.64v4.42ZM101.28,66.04H25.64s0-27.75,0-27.75c0-.89.73-1.62,1.62-1.62h72.39c.89,0,1.62.73,1.62,1.62v27.75ZM81.72,57.32c0,.74-.59,1.34-1.33,1.34h-2.48c-.36,0-.71-.13-.96-.38s-.41-.6-.41-.96.15-.7.41-.96c.26-.25.61-.39.96-.38h2.48c.36,0,.69.14.94.39s.39.59.39.94h0ZM92.75,57.32h0c0,.74-.6,1.33-1.33,1.34h-5.04c-.72-.02-1.29-.61-1.29-1.34s.57-1.31,1.29-1.33h5.04c.35,0,.69.14.94.39s.39.59.39.94h0ZM73.38,57.32c0,.74-.59,1.33-1.33,1.34h-.25,0c-.36,0-.71-.13-.97-.38s-.4-.6-.4-.96.14-.7.4-.96c.26-.25.61-.39.97-.38h.25c.36,0,.7.14.95.39s.39.59.39.94h0ZM56.05,45.27c0,.36-.14.7-.39.95s-.59.39-.95.39h-22.25c-.36,0-.71-.12-.96-.38-.26-.25-.41-.59-.41-.96s.14-.7.41-.95c.26-.25.61-.39.96-.38h22.25c.74,0,1.33.6,1.33,1.33h0ZM48.88,55.4h0c0,.36-.14.7-.39.95-.25.25-.59.39-.95.39h-15.08c-.36,0-.71-.13-.96-.38-.26-.25-.41-.59-.41-.96s.14-.7.41-.95c.26-.25.61-.39.96-.38h15.08c.74,0,1.33.59,1.34,1.33h0Z"/>
    </g>
  </g>
</svg>